<?xml version="1.0" standalone="no"?><!-- Generator: Gravit.io --><svg xmlns="http://www.w3.org/2000/svg" xmlns:xlink="http://www.w3.org/1999/xlink" style="isolation:isolate" viewBox="437 218 900 593" width="900" height="593"><path d="M 530.886 218 L 1243.114 218 C 1294.931 218 1337 260.069 1337 311.886 L 1337 717.114 C 1337 768.931 1294.931 811 1243.114 811 L 530.886 811 C 479.069 811 437 768.931 437 717.114 L 437 311.886 C 437 260.069 479.069 218 530.886 218 Z" style="stroke:none;fill:#A7D9EE;stroke-miterlimit:10;"/><clipPath id="_clipPath_3aX8Jlrkdl2lcBQvxlRHiSZk8GeRATOr"><path d="M 530.886 218 L 1243.114 218 C 1294.931 218 1337 260.069 1337 311.886 L 1337 717.114 C 1337 768.931 1294.931 811 1243.114 811 L 530.886 811 C 479.069 811 437 768.931 437 717.114 L 437 311.886 C 437 260.069 479.069 218 530.886 218 Z" style="stroke:black;fill:white;stroke-miterlimit:10;"/></clipPath><g clip-path="url(#_clipPath_3aX8Jlrkdl2lcBQvxlRHiSZk8GeRATOr)"><path d="M 455.185 608 L 1406.815 608 C 1459.349 608 1502 650.651 1502 703.185 L 1502 715.815 C 1502 768.349 1459.349 811 1406.815 811 L 455.185 811 C 402.651 811 360 768.349 360 715.815 L 360 703.185 C 360 650.651 402.651 608 455.185 608 Z" style="stroke:none;fill:#A9FFA6;stroke-miterlimit:10;"/><path d="M 477.5 171 L 495.5 171 C 536.618 171 570 204.382 570 245.5 L 570 245.5 C 570 286.618 536.618 320 495.5 320 L 477.5 320 C 436.382 320 403 286.618 403 245.5 L 403 245.5 C 403 204.382 436.382 171 477.5 171 Z" style="stroke:none;fill:#E9FF8A;stroke-miterlimit:10;"/><path d="M 1203.835 555.669 L 1356.165 555.669 C 1361.317 555.669 1365.5 559.852 1365.5 565.004 L 1365.5 598.194 C 1365.5 603.346 1361.317 607.529 1356.165 607.529 L 1203.835 607.529 C 1198.683 607.529 1194.5 603.346 1194.5 598.194 L 1194.5 565.004 C 1194.5 559.852 1198.683 555.669 1203.835 555.669 Z" style="stroke:none;fill:#8E7979;stroke-miterlimit:10;"/><path d="M 1334.25 562.529 L 1334.25 562.529 C 1336.458 562.529 1338.25 564.603 1338.25 567.158 L 1338.25 602.9 C 1338.25 605.455 1336.458 607.529 1334.25 607.529 L 1334.25 607.529 C 1332.042 607.529 1330.25 605.455 1330.25 602.9 L 1330.25 567.158 C 1330.25 564.603 1332.042 562.529 1334.25 562.529 Z" style="stroke:none;fill:#685858;stroke-miterlimit:10;"/><path d="M 1319.792 564.529 L 1320.708 564.529 C 1323.767 564.529 1326.25 567.012 1326.25 570.071 L 1326.25 601.987 C 1326.25 605.046 1323.767 607.529 1320.708 607.529 L 1319.792 607.529 C 1316.733 607.529 1314.25 605.046 1314.25 601.987 L 1314.25 570.071 C 1314.25 567.012 1316.733 564.529 1319.792 564.529 Z" style="stroke:none;fill:#685858;stroke-miterlimit:10;"/><path d="M 1279.5 564.669 L 1279.5 564.669 C 1280.742 564.669 1281.75 566.189 1281.75 568.063 L 1281.75 604.275 C 1281.75 606.148 1280.742 607.669 1279.5 607.669 L 1279.5 607.669 C 1278.258 607.669 1277.25 606.148 1277.25 604.275 L 1277.25 568.063 C 1277.25 566.189 1278.258 564.669 1279.5 564.669 Z" style="stroke:none;fill:#685858;stroke-miterlimit:10;"/><path d="M 1294.074 564.529 L 1295.676 564.529 C 1298.891 564.529 1301.5 567.139 1301.5 570.353 L 1301.5 601.706 C 1301.5 604.92 1298.891 607.529 1295.676 607.529 L 1294.074 607.529 C 1290.859 607.529 1288.25 604.92 1288.25 601.706 L 1288.25 570.353 C 1288.25 567.139 1290.859 564.529 1294.074 564.529 Z" style="stroke:none;fill:#685858;stroke-miterlimit:10;"/><path d="M 1256.75 564.808 L 1256.75 564.808 C 1259.372 564.808 1261.5 567.018 1261.5 569.739 L 1261.5 602.877 C 1261.5 605.599 1259.372 607.808 1256.75 607.808 L 1256.75 607.808 C 1254.128 607.808 1252 605.599 1252 602.877 L 1252 569.739 C 1252 567.018 1254.128 564.808 1256.75 564.808 Z" style="stroke:none;fill:#685858;stroke-miterlimit:10;"/><path d="M 1216.25 564.529 L 1216.25 564.529 C 1218.872 564.529 1221 566.739 1221 569.46 L 1221 602.598 C 1221 605.32 1218.872 607.529 1216.25 607.529 L 1216.25 607.529 C 1213.628 607.529 1211.5 605.32 1211.5 602.598 L 1211.5 569.46 C 1211.5 566.739 1213.628 564.529 1216.25 564.529 Z" style="stroke:none;fill:#685858;stroke-miterlimit:10;"/><path d="M 1204.375 564.529 L 1204.375 564.529 C 1206.238 564.529 1207.75 566.392 1207.75 568.686 L 1207.75 603.373 C 1207.75 605.667 1206.238 607.529 1204.375 607.529 L 1204.375 607.529 C 1202.512 607.529 1201 605.667 1201 603.373 L 1201 568.686 C 1201 566.392 1202.512 564.529 1204.375 564.529 Z" style="stroke:none;fill:#685858;stroke-miterlimit:10;"/><path d="M 1243 564.808 L 1243 564.808 C 1245.622 564.808 1247.75 567.018 1247.75 569.739 L 1247.75 602.877 C 1247.75 605.599 1245.622 607.808 1243 607.808 L 1243 607.808 C 1240.378 607.808 1238.25 605.599 1238.25 602.877 L 1238.25 569.739 C 1238.25 567.018 1240.378 564.808 1243 564.808 Z" style="stroke:none;fill:#685858;stroke-miterlimit:10;"/><path d="M 1228.25 564.669 L 1228.25 564.669 C 1229.492 564.669 1230.5 566.189 1230.5 568.063 L 1230.5 604.275 C 1230.5 606.148 1229.492 607.669 1228.25 607.669 L 1228.25 607.669 C 1227.008 607.669 1226 606.148 1226 604.275 L 1226 568.063 C 1226 566.189 1227.008 564.669 1228.25 564.669 Z" style="stroke:none;fill:#685858;stroke-miterlimit:10;"/><path d="M 1271.5 564.529 L 1271.5 564.529 C 1272.742 564.529 1273.75 566.05 1273.75 567.923 L 1273.75 604.135 C 1273.75 606.008 1272.742 607.529 1271.5 607.529 L 1271.5 607.529 C 1270.258 607.529 1269.25 606.008 1269.25 604.135 L 1269.25 567.923 C 1269.25 566.05 1270.258 564.529 1271.5 564.529 Z" style="stroke:none;fill:#685858;stroke-miterlimit:10;"/><path d="M 1307.5 564.529 L 1307.5 564.529 C 1308.742 564.529 1309.75 566.05 1309.75 567.923 L 1309.75 604.135 C 1309.75 606.008 1308.742 607.529 1307.5 607.529 L 1307.5 607.529 C 1306.258 607.529 1305.25 606.008 1305.25 604.135 L 1305.25 567.923 C 1305.25 566.05 1306.258 564.529 1307.5 564.529 Z" style="stroke:none;fill:#685858;stroke-miterlimit:10;"/><path d="M 1195.5 530.529 L 1364.5 530.529 C 1374.159 530.529 1382 538.371 1382 548.029 L 1382 548.029 C 1382 557.688 1374.159 565.529 1364.5 565.529 L 1195.5 565.529 C 1185.841 565.529 1178 557.688 1178 548.029 L 1178 548.029 C 1178 538.371 1185.841 530.529 1195.5 530.529 Z" style="stroke:none;fill:#7CCE6B;stroke-miterlimit:10;"/><path d="M 1321.75 539.529 L 1335.25 539.529 C 1337.596 539.529 1339.5 541.434 1339.5 543.779 L 1339.5 543.779 C 1339.5 546.125 1337.596 548.029 1335.25 548.029 L 1321.75 548.029 C 1319.404 548.029 1317.5 546.125 1317.5 543.779 L 1317.5 543.779 C 1317.5 541.434 1319.404 539.529 1321.75 539.529 Z" style="stroke:none;fill:#63A256;stroke-miterlimit:10;"/><path d="M 1294.75 533.529 L 1308.25 533.529 C 1310.596 533.529 1312.5 535.434 1312.5 537.779 L 1312.5 537.779 C 1312.5 540.125 1310.596 542.029 1308.25 542.029 L 1294.75 542.029 C 1292.404 542.029 1290.5 540.125 1290.5 537.779 L 1290.5 537.779 C 1290.5 535.434 1292.404 533.529 1294.75 533.529 Z" style="stroke:none;fill:#63A256;stroke-miterlimit:10;"/><path d="M 1307.75 552.529 L 1321.25 552.529 C 1323.596 552.529 1325.5 554.434 1325.5 556.779 L 1325.5 556.779 C 1325.5 559.125 1323.596 561.029 1321.25 561.029 L 1307.75 561.029 C 1305.404 561.029 1303.5 559.125 1303.5 556.779 L 1303.5 556.779 C 1303.5 554.434 1305.404 552.529 1307.75 552.529 Z" style="stroke:none;fill:#63A256;stroke-miterlimit:10;"/><path d="M 1267.75 542.919 L 1281.25 542.919 C 1283.596 542.919 1285.5 544.823 1285.5 547.169 L 1285.5 547.169 C 1285.5 549.514 1283.596 551.419 1281.25 551.419 L 1267.75 551.419 C 1265.404 551.419 1263.5 549.514 1263.5 547.169 L 1263.5 547.169 C 1263.5 544.823 1265.404 542.919 1267.75 542.919 Z" style="stroke:none;fill:#63A256;stroke-miterlimit:10;"/><path d="M 1252 553.89 L 1265.5 553.89 C 1267.846 553.89 1269.75 555.794 1269.75 558.14 L 1269.75 558.14 C 1269.75 560.485 1267.846 562.39 1265.5 562.39 L 1252 562.39 C 1249.654 562.39 1247.75 560.485 1247.75 558.14 L 1247.75 558.14 C 1247.75 555.794 1249.654 553.89 1252 553.89 Z" style="stroke:none;fill:#63A256;stroke-miterlimit:10;"/><path d="M 1237.5 533.529 L 1251 533.529 C 1253.346 533.529 1255.25 535.434 1255.25 537.779 L 1255.25 537.779 C 1255.25 540.125 1253.346 542.029 1251 542.029 L 1237.5 542.029 C 1235.154 542.029 1233.25 540.125 1233.25 537.779 L 1233.25 537.779 C 1233.25 535.434 1235.154 533.529 1237.5 533.529 Z" style="stroke:none;fill:#63A256;stroke-miterlimit:10;"/><path d="M 1225.25 547.169 L 1238.75 547.169 C 1241.096 547.169 1243 549.073 1243 551.419 L 1243 551.419 C 1243 553.764 1241.096 555.669 1238.75 555.669 L 1225.25 555.669 C 1222.904 555.669 1221 553.764 1221 551.419 L 1221 551.419 C 1221 549.073 1222.904 547.169 1225.25 547.169 Z" style="stroke:none;fill:#63A256;stroke-miterlimit:10;"/></g><path d="M 530.886 218 L 1243.114 218 C 1294.931 218 1337 260.069 1337 311.886 L 1337 717.114 C 1337 768.931 1294.931 811 1243.114 811 L 530.886 811 C 479.069 811 437 768.931 437 717.114 L 437 311.886 C 437 260.069 479.069 218 530.886 218 Z" style="stroke:none;fill:#A7D9EE;stroke-miterlimit:10;"/><clipPath id="_clipPath_JlL0Cx9CaZn6wtVBowC9NlslgouUaPmO"><path d="M 530.886 218 L 1243.114 218 C 1294.931 218 1337 260.069 1337 311.886 L 1337 717.114 C 1337 768.931 1294.931 811 1243.114 811 L 530.886 811 C 479.069 811 437 768.931 437 717.114 L 437 311.886 C 437 260.069 479.069 218 530.886 218 Z" style="stroke:black;fill:white;stroke-miterlimit:10;"/></clipPath><g clip-path="url(#_clipPath_JlL0Cx9CaZn6wtVBowC9NlslgouUaPmO)"><path d="M 455.185 608 L 1406.815 608 C 1459.349 608 1502 650.651 1502 703.185 L 1502 715.815 C 1502 768.349 1459.349 811 1406.815 811 L 455.185 811 C 402.651 811 360 768.349 360 715.815 L 360 703.185 C 360 650.651 402.651 608 455.185 608 Z" style="stroke:none;fill:#A9FFA6;stroke-miterlimit:10;"/><path d="M 477.5 171 L 495.5 171 C 536.618 171 570 204.382 570 245.5 L 570 245.5 C 570 286.618 536.618 320 495.5 320 L 477.5 320 C 436.382 320 403 286.618 403 245.5 L 403 245.5 C 403 204.382 436.382 171 477.5 171 Z" style="stroke:none;fill:#E9FF8A;stroke-miterlimit:10;"/><path d="M 1203.835 555.669 L 1356.165 555.669 C 1361.317 555.669 1365.5 559.852 1365.5 565.004 L 1365.5 598.194 C 1365.5 603.346 1361.317 607.529 1356.165 607.529 L 1203.835 607.529 C 1198.683 607.529 1194.5 603.346 1194.5 598.194 L 1194.5 565.004 C 1194.5 559.852 1198.683 555.669 1203.835 555.669 Z" style="stroke:none;fill:#8E7979;stroke-miterlimit:10;"/><path d="M 1334.25 562.529 L 1334.25 562.529 C 1336.458 562.529 1338.25 564.603 1338.25 567.158 L 1338.25 602.9 C 1338.25 605.455 1336.458 607.529 1334.25 607.529 L 1334.25 607.529 C 1332.042 607.529 1330.25 605.455 1330.25 602.9 L 1330.25 567.158 C 1330.25 564.603 1332.042 562.529 1334.25 562.529 Z" style="stroke:none;fill:#685858;stroke-miterlimit:10;"/><path d="M 1319.792 564.529 L 1320.708 564.529 C 1323.767 564.529 1326.25 567.012 1326.25 570.071 L 1326.25 601.987 C 1326.25 605.046 1323.767 607.529 1320.708 607.529 L 1319.792 607.529 C 1316.733 607.529 1314.25 605.046 1314.25 601.987 L 1314.25 570.071 C 1314.25 567.012 1316.733 564.529 1319.792 564.529 Z" style="stroke:none;fill:#685858;stroke-miterlimit:10;"/><path d="M 1279.5 564.669 L 1279.5 564.669 C 1280.742 564.669 1281.75 566.189 1281.75 568.063 L 1281.75 604.275 C 1281.75 606.148 1280.742 607.669 1279.5 607.669 L 1279.5 607.669 C 1278.258 607.669 1277.25 606.148 1277.25 604.275 L 1277.25 568.063 C 1277.25 566.189 1278.258 564.669 1279.5 564.669 Z" style="stroke:none;fill:#685858;stroke-miterlimit:10;"/><path d="M 1294.074 564.529 L 1295.676 564.529 C 1298.891 564.529 1301.5 567.139 1301.5 570.353 L 1301.5 601.706 C 1301.5 604.92 1298.891 607.529 1295.676 607.529 L 1294.074 607.529 C 1290.859 607.529 1288.25 604.92 1288.25 601.706 L 1288.25 570.353 C 1288.25 567.139 1290.859 564.529 1294.074 564.529 Z" style="stroke:none;fill:#685858;stroke-miterlimit:10;"/><path d="M 1256.75 564.808 L 1256.75 564.808 C 1259.372 564.808 1261.5 567.018 1261.5 569.739 L 1261.5 602.877 C 1261.5 605.599 1259.372 607.808 1256.75 607.808 L 1256.75 607.808 C 1254.128 607.808 1252 605.599 1252 602.877 L 1252 569.739 C 1252 567.018 1254.128 564.808 1256.75 564.808 Z" style="stroke:none;fill:#685858;stroke-miterlimit:10;"/><path d="M 1216.25 564.529 L 1216.25 564.529 C 1218.872 564.529 1221 566.739 1221 569.46 L 1221 602.598 C 1221 605.32 1218.872 607.529 1216.25 607.529 L 1216.25 607.529 C 1213.628 607.529 1211.5 605.32 1211.5 602.598 L 1211.5 569.46 C 1211.5 566.739 1213.628 564.529 1216.25 564.529 Z" style="stroke:none;fill:#685858;stroke-miterlimit:10;"/><path d="M 1204.375 564.529 L 1204.375 564.529 C 1206.238 564.529 1207.75 566.392 1207.75 568.686 L 1207.75 603.373 C 1207.75 605.667 1206.238 607.529 1204.375 607.529 L 1204.375 607.529 C 1202.512 607.529 1201 605.667 1201 603.373 L 1201 568.686 C 1201 566.392 1202.512 564.529 1204.375 564.529 Z" style="stroke:none;fill:#685858;stroke-miterlimit:10;"/><path d="M 1243 564.808 L 1243 564.808 C 1245.622 564.808 1247.75 567.018 1247.75 569.739 L 1247.75 602.877 C 1247.75 605.599 1245.622 607.808 1243 607.808 L 1243 607.808 C 1240.378 607.808 1238.25 605.599 1238.25 602.877 L 1238.25 569.739 C 1238.25 567.018 1240.378 564.808 1243 564.808 Z" style="stroke:none;fill:#685858;stroke-miterlimit:10;"/><path d="M 1228.25 564.669 L 1228.25 564.669 C 1229.492 564.669 1230.5 566.189 1230.5 568.063 L 1230.5 604.275 C 1230.5 606.148 1229.492 607.669 1228.25 607.669 L 1228.25 607.669 C 1227.008 607.669 1226 606.148 1226 604.275 L 1226 568.063 C 1226 566.189 1227.008 564.669 1228.25 564.669 Z" style="stroke:none;fill:#685858;stroke-miterlimit:10;"/><path d="M 1271.5 564.529 L 1271.5 564.529 C 1272.742 564.529 1273.75 566.05 1273.75 567.923 L 1273.75 604.135 C 1273.75 606.008 1272.742 607.529 1271.5 607.529 L 1271.5 607.529 C 1270.258 607.529 1269.25 606.008 1269.25 604.135 L 1269.25 567.923 C 1269.25 566.05 1270.258 564.529 1271.5 564.529 Z" style="stroke:none;fill:#685858;stroke-miterlimit:10;"/><path d="M 1307.5 564.529 L 1307.5 564.529 C 1308.742 564.529 1309.75 566.05 1309.75 567.923 L 1309.75 604.135 C 1309.75 606.008 1308.742 607.529 1307.5 607.529 L 1307.5 607.529 C 1306.258 607.529 1305.25 606.008 1305.25 604.135 L 1305.25 567.923 C 1305.25 566.05 1306.258 564.529 1307.5 564.529 Z" style="stroke:none;fill:#685858;stroke-miterlimit:10;"/><path d="M 1195.5 530.529 L 1364.5 530.529 C 1374.159 530.529 1382 538.371 1382 548.029 L 1382 548.029 C 1382 557.688 1374.159 565.529 1364.5 565.529 L 1195.5 565.529 C 1185.841 565.529 1178 557.688 1178 548.029 L 1178 548.029 C 1178 538.371 1185.841 530.529 1195.5 530.529 Z" style="stroke:none;fill:#7CCE6B;stroke-miterlimit:10;"/><path d="M 1321.75 539.529 L 1335.25 539.529 C 1337.596 539.529 1339.5 541.434 1339.5 543.779 L 1339.5 543.779 C 1339.5 546.125 1337.596 548.029 1335.25 548.029 L 1321.75 548.029 C 1319.404 548.029 1317.5 546.125 1317.5 543.779 L 1317.5 543.779 C 1317.5 541.434 1319.404 539.529 1321.75 539.529 Z" style="stroke:none;fill:#63A256;stroke-miterlimit:10;"/><path d="M 1294.75 533.529 L 1308.25 533.529 C 1310.596 533.529 1312.5 535.434 1312.5 537.779 L 1312.5 537.779 C 1312.5 540.125 1310.596 542.029 1308.25 542.029 L 1294.75 542.029 C 1292.404 542.029 1290.5 540.125 1290.5 537.779 L 1290.5 537.779 C 1290.5 535.434 1292.404 533.529 1294.75 533.529 Z" style="stroke:none;fill:#63A256;stroke-miterlimit:10;"/><path d="M 1307.75 552.529 L 1321.25 552.529 C 1323.596 552.529 1325.5 554.434 1325.5 556.779 L 1325.5 556.779 C 1325.5 559.125 1323.596 561.029 1321.25 561.029 L 1307.75 561.029 C 1305.404 561.029 1303.5 559.125 1303.5 556.779 L 1303.5 556.779 C 1303.5 554.434 1305.404 552.529 1307.75 552.529 Z" style="stroke:none;fill:#63A256;stroke-miterlimit:10;"/><path d="M 1267.75 542.919 L 1281.25 542.919 C 1283.596 542.919 1285.5 544.823 1285.5 547.169 L 1285.5 547.169 C 1285.5 549.514 1283.596 551.419 1281.25 551.419 L 1267.75 551.419 C 1265.404 551.419 1263.5 549.514 1263.5 547.169 L 1263.5 547.169 C 1263.5 544.823 1265.404 542.919 1267.75 542.919 Z" style="stroke:none;fill:#63A256;stroke-miterlimit:10;"/><path d="M 1252 553.89 L 1265.5 553.89 C 1267.846 553.89 1269.75 555.794 1269.75 558.14 L 1269.75 558.14 C 1269.75 560.485 1267.846 562.39 1265.5 562.39 L 1252 562.39 C 1249.654 562.39 1247.75 560.485 1247.75 558.14 L 1247.75 558.14 C 1247.75 555.794 1249.654 553.89 1252 553.89 Z" style="stroke:none;fill:#63A256;stroke-miterlimit:10;"/><path d="M 1237.5 533.529 L 1251 533.529 C 1253.346 533.529 1255.25 535.434 1255.25 537.779 L 1255.25 537.779 C 1255.25 540.125 1253.346 542.029 1251 542.029 L 1237.5 542.029 C 1235.154 542.029 1233.25 540.125 1233.25 537.779 L 1233.25 537.779 C 1233.25 535.434 1235.154 533.529 1237.5 533.529 Z" style="stroke:none;fill:#63A256;stroke-miterlimit:10;"/><path d="M 1225.25 547.169 L 1238.75 547.169 C 1241.096 547.169 1243 549.073 1243 551.419 L 1243 551.419 C 1243 553.764 1241.096 555.669 1238.75 555.669 L 1225.25 555.669 C 1222.904 555.669 1221 553.764 1221 551.419 L 1221 551.419 C 1221 549.073 1222.904 547.169 1225.25 547.169 Z" style="stroke:none;fill:#63A256;stroke-miterlimit:10;"/></g><path d="M 530.886 218 L 1243.114 218 C 1294.931 218 1337 260.069 1337 311.886 L 1337 717.114 C 1337 768.931 1294.931 811 1243.114 811 L 530.886 811 C 479.069 811 437 768.931 437 717.114 L 437 311.886 C 437 260.069 479.069 218 530.886 218 Z" style="stroke:none;fill:#A7D9EE;stroke-miterlimit:10;"/><clipPath id="_clipPath_QwG0ZlqejVLQZhaC0t6lVVwyGI6aijVz"><path d="M 530.886 218 L 1243.114 218 C 1294.931 218 1337 260.069 1337 311.886 L 1337 717.114 C 1337 768.931 1294.931 811 1243.114 811 L 530.886 811 C 479.069 811 437 768.931 437 717.114 L 437 311.886 C 437 260.069 479.069 218 530.886 218 Z" style="stroke:black;fill:white;stroke-miterlimit:10;"/></clipPath><g clip-path="url(#_clipPath_QwG0ZlqejVLQZhaC0t6lVVwyGI6aijVz)"><path d="M 455.185 608 L 1406.815 608 C 1459.349 608 1502 650.651 1502 703.185 L 1502 715.815 C 1502 768.349 1459.349 811 1406.815 811 L 455.185 811 C 402.651 811 360 768.349 360 715.815 L 360 703.185 C 360 650.651 402.651 608 455.185 608 Z" style="stroke:none;fill:#A9FFA6;stroke-miterlimit:10;"/><path d="M 477.5 171 L 495.5 171 C 536.618 171 570 204.382 570 245.5 L 570 245.5 C 570 286.618 536.618 320 495.5 320 L 477.5 320 C 436.382 320 403 286.618 403 245.5 L 403 245.5 C 403 204.382 436.382 171 477.5 171 Z" style="stroke:none;fill:#E9FF8A;stroke-miterlimit:10;"/><path d="M 1203.835 555.669 L 1356.165 555.669 C 1361.317 555.669 1365.5 559.852 1365.5 565.004 L 1365.5 598.194 C 1365.5 603.346 1361.317 607.529 1356.165 607.529 L 1203.835 607.529 C 1198.683 607.529 1194.5 603.346 1194.5 598.194 L 1194.5 565.004 C 1194.5 559.852 1198.683 555.669 1203.835 555.669 Z" style="stroke:none;fill:#8E7979;stroke-miterlimit:10;"/><path d="M 1334.25 562.529 L 1334.25 562.529 C 1336.458 562.529 1338.25 564.603 1338.25 567.158 L 1338.25 602.9 C 1338.25 605.455 1336.458 607.529 1334.25 607.529 L 1334.25 607.529 C 1332.042 607.529 1330.25 605.455 1330.25 602.9 L 1330.25 567.158 C 1330.25 564.603 1332.042 562.529 1334.25 562.529 Z" style="stroke:none;fill:#685858;stroke-miterlimit:10;"/><path d="M 1319.792 564.529 L 1320.708 564.529 C 1323.767 564.529 1326.25 567.012 1326.25 570.071 L 1326.25 601.987 C 1326.25 605.046 1323.767 607.529 1320.708 607.529 L 1319.792 607.529 C 1316.733 607.529 1314.25 605.046 1314.25 601.987 L 1314.25 570.071 C 1314.25 567.012 1316.733 564.529 1319.792 564.529 Z" style="stroke:none;fill:#685858;stroke-miterlimit:10;"/><path d="M 1279.5 564.669 L 1279.5 564.669 C 1280.742 564.669 1281.75 566.189 1281.75 568.063 L 1281.75 604.275 C 1281.75 606.148 1280.742 607.669 1279.5 607.669 L 1279.5 607.669 C 1278.258 607.669 1277.25 606.148 1277.25 604.275 L 1277.25 568.063 C 1277.25 566.189 1278.258 564.669 1279.5 564.669 Z" style="stroke:none;fill:#685858;stroke-miterlimit:10;"/><path d="M 1294.074 564.529 L 1295.676 564.529 C 1298.891 564.529 1301.5 567.139 1301.5 570.353 L 1301.5 601.706 C 1301.5 604.92 1298.891 607.529 1295.676 607.529 L 1294.074 607.529 C 1290.859 607.529 1288.25 604.92 1288.25 601.706 L 1288.25 570.353 C 1288.25 567.139 1290.859 564.529 1294.074 564.529 Z" style="stroke:none;fill:#685858;stroke-miterlimit:10;"/><path d="M 1256.75 564.808 L 1256.75 564.808 C 1259.372 564.808 1261.5 567.018 1261.5 569.739 L 1261.5 602.877 C 1261.5 605.599 1259.372 607.808 1256.75 607.808 L 1256.75 607.808 C 1254.128 607.808 1252 605.599 1252 602.877 L 1252 569.739 C 1252 567.018 1254.128 564.808 1256.75 564.808 Z" style="stroke:none;fill:#685858;stroke-miterlimit:10;"/><path d="M 1216.25 564.529 L 1216.25 564.529 C 1218.872 564.529 1221 566.739 1221 569.46 L 1221 602.598 C 1221 605.32 1218.872 607.529 1216.25 607.529 L 1216.25 607.529 C 1213.628 607.529 1211.5 605.32 1211.5 602.598 L 1211.5 569.46 C 1211.5 566.739 1213.628 564.529 1216.25 564.529 Z" style="stroke:none;fill:#685858;stroke-miterlimit:10;"/><path d="M 1204.375 564.529 L 1204.375 564.529 C 1206.238 564.529 1207.75 566.392 1207.75 568.686 L 1207.75 603.373 C 1207.75 605.667 1206.238 607.529 1204.375 607.529 L 1204.375 607.529 C 1202.512 607.529 1201 605.667 1201 603.373 L 1201 568.686 C 1201 566.392 1202.512 564.529 1204.375 564.529 Z" style="stroke:none;fill:#685858;stroke-miterlimit:10;"/><path d="M 1243 564.808 L 1243 564.808 C 1245.622 564.808 1247.75 567.018 1247.75 569.739 L 1247.75 602.877 C 1247.75 605.599 1245.622 607.808 1243 607.808 L 1243 607.808 C 1240.378 607.808 1238.25 605.599 1238.25 602.877 L 1238.25 569.739 C 1238.25 567.018 1240.378 564.808 1243 564.808 Z" style="stroke:none;fill:#685858;stroke-miterlimit:10;"/><path d="M 1228.25 564.669 L 1228.25 564.669 C 1229.492 564.669 1230.5 566.189 1230.5 568.063 L 1230.5 604.275 C 1230.5 606.148 1229.492 607.669 1228.25 607.669 L 1228.25 607.669 C 1227.008 607.669 1226 606.148 1226 604.275 L 1226 568.063 C 1226 566.189 1227.008 564.669 1228.25 564.669 Z" style="stroke:none;fill:#685858;stroke-miterlimit:10;"/><path d="M 1271.5 564.529 L 1271.5 564.529 C 1272.742 564.529 1273.75 566.05 1273.75 567.923 L 1273.75 604.135 C 1273.75 606.008 1272.742 607.529 1271.5 607.529 L 1271.5 607.529 C 1270.258 607.529 1269.25 606.008 1269.25 604.135 L 1269.25 567.923 C 1269.25 566.05 1270.258 564.529 1271.5 564.529 Z" style="stroke:none;fill:#685858;stroke-miterlimit:10;"/><path d="M 1307.5 564.529 L 1307.5 564.529 C 1308.742 564.529 1309.75 566.05 1309.75 567.923 L 1309.75 604.135 C 1309.75 606.008 1308.742 607.529 1307.5 607.529 L 1307.5 607.529 C 1306.258 607.529 1305.25 606.008 1305.25 604.135 L 1305.25 567.923 C 1305.25 566.05 1306.258 564.529 1307.5 564.529 Z" style="stroke:none;fill:#685858;stroke-miterlimit:10;"/><path d="M 1195.5 531 L 1364.5 531 C 1374.159 531 1382 538.841 1382 548.5 L 1382 548.5 C 1382 558.159 1374.159 566 1364.5 566 L 1195.5 566 C 1185.841 566 1178 558.159 1178 548.5 L 1178 548.5 C 1178 538.841 1185.841 531 1195.5 531 Z" style="stroke:none;fill:#7CCE6B;stroke-miterlimit:10;"/><path d="M 1321.75 539.529 L 1335.25 539.529 C 1337.596 539.529 1339.5 541.434 1339.5 543.779 L 1339.5 543.779 C 1339.5 546.125 1337.596 548.029 1335.25 548.029 L 1321.75 548.029 C 1319.404 548.029 1317.5 546.125 1317.5 543.779 L 1317.5 543.779 C 1317.5 541.434 1319.404 539.529 1321.75 539.529 Z" style="stroke:none;fill:#63A256;stroke-miterlimit:10;"/><path d="M 1294.75 533.529 L 1308.25 533.529 C 1310.596 533.529 1312.5 535.434 1312.5 537.779 L 1312.5 537.779 C 1312.5 540.125 1310.596 542.029 1308.25 542.029 L 1294.75 542.029 C 1292.404 542.029 1290.5 540.125 1290.5 537.779 L 1290.5 537.779 C 1290.5 535.434 1292.404 533.529 1294.75 533.529 Z" style="stroke:none;fill:#63A256;stroke-miterlimit:10;"/><path d="M 1307.75 552.529 L 1321.25 552.529 C 1323.596 552.529 1325.5 554.434 1325.5 556.779 L 1325.5 556.779 C 1325.5 559.125 1323.596 561.029 1321.25 561.029 L 1307.75 561.029 C 1305.404 561.029 1303.5 559.125 1303.5 556.779 L 1303.5 556.779 C 1303.5 554.434 1305.404 552.529 1307.75 552.529 Z" style="stroke:none;fill:#63A256;stroke-miterlimit:10;"/><path d="M 1267.75 542.919 L 1281.25 542.919 C 1283.596 542.919 1285.5 544.823 1285.5 547.169 L 1285.5 547.169 C 1285.5 549.514 1283.596 551.419 1281.25 551.419 L 1267.75 551.419 C 1265.404 551.419 1263.5 549.514 1263.5 547.169 L 1263.5 547.169 C 1263.5 544.823 1265.404 542.919 1267.75 542.919 Z" style="stroke:none;fill:#63A256;stroke-miterlimit:10;"/><path d="M 1252 553.89 L 1265.5 553.89 C 1267.846 553.89 1269.75 555.794 1269.75 558.14 L 1269.75 558.14 C 1269.75 560.485 1267.846 562.39 1265.5 562.39 L 1252 562.39 C 1249.654 562.39 1247.75 560.485 1247.75 558.14 L 1247.75 558.14 C 1247.75 555.794 1249.654 553.89 1252 553.89 Z" style="stroke:none;fill:#63A256;stroke-miterlimit:10;"/><path d="M 1237.5 533.529 L 1251 533.529 C 1253.346 533.529 1255.25 535.434 1255.25 537.779 L 1255.25 537.779 C 1255.25 540.125 1253.346 542.029 1251 542.029 L 1237.5 542.029 C 1235.154 542.029 1233.25 540.125 1233.25 537.779 L 1233.25 537.779 C 1233.25 535.434 1235.154 533.529 1237.5 533.529 Z" style="stroke:none;fill:#63A256;stroke-miterlimit:10;"/><path d="M 1225.25 547.169 L 1238.75 547.169 C 1241.096 547.169 1243 549.073 1243 551.419 L 1243 551.419 C 1243 553.764 1241.096 555.669 1238.75 555.669 L 1225.25 555.669 C 1222.904 555.669 1221 553.764 1221 551.419 L 1221 551.419 C 1221 549.073 1222.904 547.169 1225.25 547.169 Z" style="stroke:none;fill:#63A256;stroke-miterlimit:10;"/><path d="M 1194.25 551.419 L 1207.75 551.419 C 1210.096 551.419 1212 553.323 1212 555.669 L 1212 555.669 C 1212 558.014 1210.096 559.919 1207.75 559.919 L 1194.25 559.919 C 1191.904 559.919 1190 558.014 1190 555.669 L 1190 555.669 C 1190 553.323 1191.904 551.419 1194.25 551.419 Z" style="stroke:none;fill:#63A256;stroke-miterlimit:10;"/><path d="M 1198.75 535.279 L 1212.25 535.279 C 1214.596 535.279 1216.5 537.184 1216.5 539.529 L 1216.5 539.529 C 1216.5 541.875 1214.596 543.779 1212.25 543.779 L 1198.75 543.779 C 1196.404 543.779 1194.5 541.875 1194.5 539.529 L 1194.5 539.529 C 1194.5 537.184 1196.404 535.279 1198.75 535.279 Z" style="stroke:none;fill:#63A256;stroke-miterlimit:10;"/></g><path d=" M 949 608 L 1072 608 L 1036 811 L 841 811 L 949 608 Z " fill="rgb(111,111,111)"/><g id="null"><path d=" M 999.561 610.246 L 990.327 641.665 L 983.345 641.163 L 994.198 609.86 L 999.561 610.246 Z " fill="rgb(255,254,254)"/><path d=" M 953.81 724.259 L 967.275 725.227 L 948.861 793.081 L 930.409 791.754 L 953.81 724.259 Z " fill="rgb(255,254,254)"/><path d=" M 980.848 648.001 L 988.828 648.575 L 968.918 716.322 L 956.949 715.461 L 980.848 648.001 Z " fill="rgb(255,254,254)"/></g><path d="M 559.08 518 L 706.92 518 C 714.691 518 721 524.309 721 532.08 L 721 691.42 C 721 699.191 714.691 705.5 706.92 705.5 L 559.08 705.5 C 551.309 705.5 545 699.191 545 691.42 L 545 532.08 C 545 524.309 551.309 518 559.08 518 Z" style="stroke:none;fill:#B08F8F;stroke-miterlimit:10;"/><path d="M 646.62 606.86 L 663.38 606.86 C 664.274 606.86 665 607.586 665 608.48 L 665 614.24 C 665 615.135 664.274 615.86 663.38 615.86 L 646.62 615.86 C 645.726 615.86 645 615.135 645 614.24 L 645 608.48 C 645 607.586 645.726 606.86 646.62 606.86 Z" style="stroke:none;fill:#C8A1A1;stroke-miterlimit:10;"/><path d="M 658.62 617 L 675.38 617 C 676.274 617 677 617.726 677 618.62 L 677 624.38 C 677 625.274 676.274 626 675.38 626 L 658.62 626 C 657.726 626 657 625.274 657 624.38 L 657 618.62 C 657 617.726 657.726 617 658.62 617 Z" style="stroke:none;fill:#C8A1A1;stroke-miterlimit:10;"/><path d="M 636.62 617 L 653.38 617 C 654.274 617 655 617.726 655 618.62 L 655 624.38 C 655 625.274 654.274 626 653.38 626 L 636.62 626 C 635.726 626 635 625.274 635 624.38 L 635 618.62 C 635 617.726 635.726 617 636.62 617 Z" style="stroke:none;fill:#C8A1A1;stroke-miterlimit:10;"/><path d="M 577.295 546 L 592.705 546 C 593.972 546 595 547.028 595 548.295 L 595 552.705 C 595 553.972 593.972 555 592.705 555 L 577.295 555 C 576.028 555 575 553.972 575 552.705 L 575 548.295 C 575 547.028 576.028 546 577.295 546 Z" style="stroke:none;fill:#C8A1A1;stroke-miterlimit:10;"/><path d="M 599.295 546 L 614.705 546 C 615.972 546 617 547.028 617 548.295 L 617 552.705 C 617 553.972 615.972 555 614.705 555 L 599.295 555 C 598.028 555 597 553.972 597 552.705 L 597 548.295 C 597 547.028 598.028 546 599.295 546 Z" style="stroke:none;fill:#C8A1A1;stroke-miterlimit:10;"/><path d="M 582.295 557 L 597.705 557 C 598.972 557 600 558.028 600 559.295 L 600 563.705 C 600 564.972 598.972 566 597.705 566 L 582.295 566 C 581.028 566 580 564.972 580 563.705 L 580 559.295 C 580 558.028 581.028 557 582.295 557 Z" style="stroke:none;fill:#C8A1A1;stroke-miterlimit:10;"/><path d="M 604.295 557 L 619.705 557 C 620.972 557 622 558.028 622 559.295 L 622 563.705 C 622 564.972 620.972 566 619.705 566 L 604.295 566 C 603.028 566 602 564.972 602 563.705 L 602 559.295 C 602 558.028 603.028 557 604.295 557 Z" style="stroke:none;fill:#C8A1A1;stroke-miterlimit:10;"/><path d="M 573.795 652 L 589.205 652 C 590.472 652 591.5 653.028 591.5 654.295 L 591.5 658.705 C 591.5 659.972 590.472 661 589.205 661 L 573.795 661 C 572.528 661 571.5 659.972 571.5 658.705 L 571.5 654.295 C 571.5 653.028 572.528 652 573.795 652 Z" style="stroke:none;fill:#C8A1A1;stroke-miterlimit:10;"/><path d="M 595.795 652 L 611.205 652 C 612.472 652 613.5 653.028 613.5 654.295 L 613.5 658.705 C 613.5 659.972 612.472 661 611.205 661 L 595.795 661 C 594.528 661 593.5 659.972 593.5 658.705 L 593.5 654.295 C 593.5 653.028 594.528 652 595.795 652 Z" style="stroke:none;fill:#C8A1A1;stroke-miterlimit:10;"/><path d="M 578.795 663 L 594.205 663 C 595.472 663 596.5 664.028 596.5 665.295 L 596.5 669.705 C 596.5 670.972 595.472 672 594.205 672 L 578.795 672 C 577.528 672 576.5 670.972 576.5 669.705 L 576.5 665.295 C 576.5 664.028 577.528 663 578.795 663 Z" style="stroke:none;fill:#C8A1A1;stroke-miterlimit:10;"/><path d="M 600.795 663 L 616.205 663 C 617.472 663 618.5 664.028 618.5 665.295 L 618.5 669.705 C 618.5 670.972 617.472 672 616.205 672 L 600.795 672 C 599.528 672 598.5 670.972 598.5 669.705 L 598.5 665.295 C 598.5 664.028 599.528 663 600.795 663 Z" style="stroke:none;fill:#C8A1A1;stroke-miterlimit:10;"/><g id="null"><rect x="582" y="585.36" width="30" height="52" transform="matrix(1,0,0,1,0,0)" fill="rgb(87,82,82)"/><rect x="584.778" y="588.195" width="11.111" height="22.75" transform="matrix(1,0,0,1,0,0)" fill="rgb(223,216,216)"/><rect x="597.556" y="612.01" width="11.111" height="22.75" transform="matrix(1,0,0,1,0,0)" fill="rgb(223,216,216)"/><rect x="584.778" y="612.01" width="11.111" height="22.75" transform="matrix(1,0,0,1,0,0)" fill="rgb(223,216,216)"/><rect x="597.556" y="588.195" width="11.111" height="22.75" transform="matrix(1,0,0,1,0,0)" fill="rgb(223,216,216)"/></g><g id="null"><rect x="659" y="637" width="30" height="52" transform="matrix(1,0,0,1,0,0)" fill="rgb(87,82,82)"/><rect x="661.778" y="639.834" width="11.111" height="22.75" transform="matrix(1,0,0,1,0,0)" fill="rgb(223,216,216)"/><rect x="674.556" y="663.65" width="11.111" height="22.75" transform="matrix(1,0,0,1,0,0)" fill="rgb(223,216,216)"/><rect x="661.778" y="663.65" width="11.111" height="22.75" transform="matrix(1,0,0,1,0,0)" fill="rgb(223,216,216)"/><rect x="674.556" y="639.834" width="11.111" height="22.75" transform="matrix(1,0,0,1,0,0)" fill="rgb(223,216,216)"/></g><g id="null"><rect x="655" y="540" width="30" height="52" transform="matrix(1,0,0,1,0,0)" fill="rgb(87,82,82)"/><rect x="657.778" y="542.834" width="11.111" height="22.75" transform="matrix(1,0,0,1,0,0)" fill="rgb(223,216,216)"/><rect x="670.556" y="566.65" width="11.111" height="22.75" transform="matrix(1,0,0,1,0,0)" fill="rgb(223,216,216)"/><rect x="657.778" y="566.65" width="11.111" height="22.75" transform="matrix(1,0,0,1,0,0)" fill="rgb(223,216,216)"/><rect x="670.556" y="542.834" width="11.111" height="22.75" transform="matrix(1,0,0,1,0,0)" fill="rgb(223,216,216)"/></g><rect x="545" y="493" width="176" height="31.5" transform="matrix(1,0,0,1,0,0)" fill="rgb(176,143,143)"/><path d="M 543.75 518 L 722.25 518 C 724.044 518 725.5 519.456 725.5 521.25 L 725.5 527.75 C 725.5 529.544 724.044 531 722.25 531 L 543.75 531 C 541.956 531 540.5 529.544 540.5 527.75 L 540.5 521.25 C 540.5 519.456 541.956 518 543.75 518 Z" style="stroke:none;fill:#805F5F;stroke-miterlimit:10;"/><path d="M 539.82 486.5 L 726.18 486.5 C 728.013 486.5 729.5 487.987 729.5 489.82 L 729.5 496.18 C 729.5 498.013 728.013 499.5 726.18 499.5 L 539.82 499.5 C 537.987 499.5 536.5 498.013 536.5 496.18 L 536.5 489.82 C 536.5 487.987 537.987 486.5 539.82 486.5 Z" style="stroke:none;fill:#805F5F;stroke-miterlimit:10;"/></svg>