<svg xmlns="http://www.w3.org/2000/svg" viewBox="0 0 750 500"><defs><style>.cls-1,.cls-15,.cls-16,.cls-5{fill:#fff;}.cls-2{fill:#9fb2d9;}.cls-11,.cls-14,.cls-18,.cls-2,.cls-22,.cls-25,.cls-26,.cls-27,.cls-28,.cls-3,.cls-31,.cls-32,.cls-33,.cls-34,.cls-35,.cls-36,.cls-37,.cls-38,.cls-4,.cls-5,.cls-6,.cls-7,.cls-8{fill-rule:evenodd;}.cls-3{fill:#e1e8f6;}.cls-4{fill:#b4c5e6;}.cls-6{fill:#c0cdea;}.cls-7,.cls-9{fill:#00000f;}.cls-10,.cls-8{fill:#3b405f;}.cls-11,.cls-19{fill:#101537;}.cls-12{fill:#5eb9bd;}.cls-13,.cls-22{fill:#e4e1e8;}.cls-14,.cls-17{fill:#d64c47;}.cls-15{font-size:7.49px;}.cls-15,.cls-17{font-family:OpenSans-Bold, Open Sans;}.cls-15,.cls-16,.cls-17{font-weight:700;}.cls-16{font-size:58.22px;font-family:RobotoCondensed-Bold, Roboto Condensed;}.cls-17{font-size:2.5px;}.cls-18,.cls-23{fill:#070725;}.cls-20{fill:#d58750;}.cls-21,.cls-25{fill:#b56b41;}.cls-24{fill:#aeabba;}.cls-26{fill:#ed7862;}.cls-27{fill:#f5ac83;}.cls-28{fill:#181d3b;}.cls-29,.cls-32{fill:#f18a00;}.cls-30,.cls-33{fill:#fcc100;}.cls-31{fill:#707386;}.cls-34{fill:#294d3c;}.cls-35{fill:#4a9075;}.cls-36{fill:#1b7154;}.cls-37{fill:#a6c86b;}.cls-38{fill:#5f9850;}</style></defs><title>404_page</title><g id="BACKGROUND"><rect class="cls-1" x="125" width="500" height="500"/><rect class="cls-1" width="750" height="500"/></g><g id="OBJECTS"><path class="cls-2" d="M406,78.42a.92.92,0,1,0-1.83,0v2.15h-2.15a.92.92,0,0,0,0,1.83h2.15v2.15a.92.92,0,0,0,1.83,0V82.4h2.15a.92.92,0,1,0,0-1.83H406Z"/><path class="cls-3" d="M174.91,332.93h-60a58.89,58.89,0,0,0-58.71,58.72h0a58.89,58.89,0,0,0,58.71,58.72H622.29c52.29,0,95.08-42.79,95.08-95.08h0c0-52.3-42.79-95.08-95.08-95.08h0A40.32,40.32,0,0,1,582.09,220h0a40.32,40.32,0,0,1,40.2-40.2h48.38a41.92,41.92,0,0,0,41.8-41.8h0a41.92,41.92,0,0,0-41.8-41.79H609.49a16.32,16.32,0,0,1-16.27-16.28h0a16.32,16.32,0,0,1,16.27-16.27h10.78A11.26,11.26,0,0,0,631.5,52.43h0A11.26,11.26,0,0,0,620.27,41.2H549.5c-14.9,0-16.56,17.61-54.21,17.61H408a14.69,14.69,0,0,0-14.65,14.65h0A14.7,14.7,0,0,0,408,88.12h14.07a21.3,21.3,0,0,1,21.24,21.23h0a21.31,21.31,0,0,1-21.24,21.24H379.71c-57.2,0-65.27,14.94-75.29,44.67s-62,32.12-62,32.12H171.25a32.09,32.09,0,0,0-32,32h0a32.09,32.09,0,0,0,32,32h3.66a30.87,30.87,0,0,1,30.78,30.78h0a30.87,30.87,0,0,1-30.78,30.77ZM651.79,63.66A11.23,11.23,0,1,1,663,52.43,11.23,11.23,0,0,1,651.79,63.66Z"/><path class="cls-4" d="M573.51,236c6.08-8.82,18.83-23.49,43.19-38.09,38.54-23.09,67.74-53.69,54.9-71.79-12.59-17.77-69,16.54-115.9,102.33A103.32,103.32,0,0,0,573.51,236Z"/><path class="cls-5" d="M566,228.16a23.16,23.16,0,0,1,7.6,1,.5.5,0,0,0,.61-.33.51.51,0,0,0-.33-.61,25.56,25.56,0,0,0-7.3-1.1q1.24-2.11,2.5-4.18c1.7,0,7.18-.14,9.24,0a.49.49,0,0,0,.52-.46.49.49,0,0,0-.46-.52c-1.89-.1-6.55,0-8.7,0q2.34-3.84,4.69-7.47a114.18,114.18,0,0,1,12.4.94.49.49,0,0,0,.13-1,117.44,117.44,0,0,0-11.91-.94q2.35-3.65,4.73-7.08a162,162,0,0,1,17.71,1.33.49.49,0,0,0,.55-.42.5.5,0,0,0-.42-.55,164.51,164.51,0,0,0-17.17-1.33q3.11-4.5,6.19-8.64c2.36-.1,12.15-.36,19.49,2a.49.49,0,0,0,.62-.31.5.5,0,0,0-.31-.62c-6.85-2.2-15.73-2.18-19-2.08q3.79-5.07,7.53-9.62c3.22.18,16.17,1.17,22.23,5.46a.49.49,0,0,0,.56-.81c-5.88-4.16-17.85-5.3-22-5.58,2.65-3.21,5.26-6.22,7.84-9.07a102.3,102.3,0,0,1,21.42,7.56.48.48,0,0,0,.66-.21.5.5,0,0,0-.22-.66,103.21,103.21,0,0,0-21.11-7.52c1.53-1.67,3-3.27,4.55-4.82a110.19,110.19,0,0,1,24.49,8.78.5.5,0,0,0,.66-.23.49.49,0,0,0-.23-.65,113,113,0,0,0-24.11-8.73q5.34-5.46,10.39-9.95c2.84.94,17.25,5.81,24.82,10.63a.49.49,0,0,0,.52-.82c-7.27-4.63-20.67-9.28-24.49-10.56q2.94-2.6,5.75-4.88a143.35,143.35,0,0,1,23.78,10.65.49.49,0,0,0,.67-.17.48.48,0,0,0-.18-.67,144.44,144.44,0,0,0-23.37-10.54c4.39-3.53,8.51-6.51,12.32-9,2.41.57,13.29,3.29,21.45,8a.5.5,0,0,0,.67-.18.49.49,0,0,0-.17-.67c-7.51-4.35-17.25-7-20.82-7.92,1.57-1,3.09-1.95,4.54-2.82A75.66,75.66,0,0,1,664,145.57a.49.49,0,0,0,.35-.91A78.92,78.92,0,0,0,646.85,140c11.72-6.78,19-8.5,19.07-8.51a.74.74,0,0,0-.36-1.43,56.88,56.88,0,0,0-8.81,3.23,44.77,44.77,0,0,1,4.26-4.92.49.49,0,0,0-.51-.84c-.88.54-4.46,5.08-5.69,6.65-2.26,1.06-4.82,2.36-7.66,4l4.83-9.61a.49.49,0,0,0-.87-.44l-5.5,10.94c-2,1.14-4,2.41-6.19,3.84l5.21-11.39a.49.49,0,0,0-.24-.65.5.5,0,0,0-.65.24L637.87,144c-3.25,2.19-6.71,4.7-10.36,7.59l4.52-11.8a.49.49,0,0,0-.29-.63.48.48,0,0,0-.63.28L626,152.76c-1.66,1.35-3.36,2.77-5.09,4.28l3.83-10.63a.49.49,0,0,0-.92-.34l-4.43,12.31c-3.21,2.85-6.53,6-9.92,9.41l2.88-10.38a.49.49,0,0,0-.94-.26L608,169.23q-2,2.09-4.07,4.3l1.62-7.93a.5.5,0,0,0-.39-.58.49.49,0,0,0-.57.39l-1.94,9.52q-3.83,4.19-7.74,8.9l1.51-8.84a.49.49,0,0,0-1-.17l-1.79,10.51q-3.44,4.18-6.91,8.8l1-7.85a.49.49,0,0,0-.42-.55.49.49,0,0,0-.55.43l-1.2,9.55q-3,4.08-6.1,8.49l0-7.09a.49.49,0,0,0-1,0l-.06,8.53c-1.47,2.14-3,4.36-4.44,6.63l-.76-6a.49.49,0,0,0-.54-.42.49.49,0,0,0-.43.55l.91,7.19c-1.36,2.11-2.73,4.27-4.09,6.48l-.71-3.9a.49.49,0,0,0-1,.18l.91,5q-1.53,2.49-3,5.09l-1.62-3.2a.49.49,0,0,0-.66-.22.5.5,0,0,0-.22.66l1.91,3.76c-.83,1.42-1.66,2.85-2.49,4.31l1.35.61Q564.79,230.18,566,228.16Z"/><path class="cls-2" d="M566.53,241c6.51-4.12,18-9.64,35.35-12.11,29.45-4.2,55.73-16.27,53.74-32.37C653.71,181,612,187,560,229.06l6.49,11.88Z"/><path class="cls-4" d="M647.68,198.91a1,1,0,0,0,1-1,1,1,0,0,0-1-1,74.34,74.34,0,0,0-8.92.75l4.8-3.24a.67.67,0,0,0-.75-1.11l-7.14,4.82c-2.61.43-5.58,1-8.86,1.79l5.05-4.82a.67.67,0,0,0,0-1,.68.68,0,0,0-1,0l-6.77,6.46c-3.4.89-7.08,2-11,3.36l4.23-4.34a.68.68,0,0,0,0-1,.67.67,0,0,0-1,0L610.24,205c-4.08,1.54-8.38,3.36-12.82,5.53l3.57-4.59a.68.68,0,0,0-.12-.94.66.66,0,0,0-.94.12l-5.31,6.81c-4.16,2.15-8.45,4.59-12.8,7.39l1.47-3.12a.68.68,0,0,0-.33-.89.67.67,0,0,0-.89.32l-2.4,5.1c-3.3,2.2-6.63,4.59-10,7.22l1.34-3.18a.68.68,0,0,0-.36-.88.67.67,0,0,0-.88.36l-2.31,5.46q-2.43,2-4.88,4.13l1,1.82c1.63-1.44,3.26-2.83,4.88-4.15,1.67.1,5.66.44,7.34,1.32a.67.67,0,0,0,.91-.28.68.68,0,0,0-.28-.91c-1.49-.78-4.4-1.17-6.44-1.36,1.29-1,2.57-2,3.86-3a28.33,28.33,0,0,1,8.32,2.58.69.69,0,0,0,.92-.26.68.68,0,0,0-.26-.92,27.36,27.36,0,0,0-7.51-2.5q4-2.9,7.9-5.39c2.24.92,9.33,3.94,12.12,6.23a.67.67,0,0,0,.85-1c-2.61-2.15-8.69-4.85-11.58-6.07,2.79-1.75,5.56-3.35,8.28-4.82,2.24.86,9.53,3.81,14.34,7.62a.67.67,0,0,0,.94-.11.68.68,0,0,0-.11-.95c-4.33-3.42-10.58-6.17-13.61-7.39,1.34-.71,2.68-1.39,4-2A65.39,65.39,0,0,1,615.94,221a.66.66,0,0,0,.94-.15.67.67,0,0,0-.15-.94,66.46,66.46,0,0,0-16.51-8.48,145.83,145.83,0,0,1,13.72-5.63c2.57,1.6,12.53,7.86,16.89,12a.67.67,0,0,0,.95,0,.68.68,0,0,0,0-1c-4-3.83-12.64-9.37-16.16-11.58,3.23-1.09,6.3-2,9.17-2.73,2.31,1.76,10.84,8.29,12.82,10a.67.67,0,1,0,.88-1c-1.81-1.57-9-7.06-12-9.42,3.75-.92,7.11-1.57,10-2,2.07,1.8,7.07,6.16,8.23,7.33a.68.68,0,1,0,1-1c-1.05-1-5.07-4.57-7.45-6.63A72.2,72.2,0,0,1,647.68,198.91Z"/><path class="cls-2" d="M419.21,255.13c-.43-5.87-.62-11.56-.6-17.09s.27-11,.73-16.24c1.74-19.5,6.48-36.33,13.54-50.7a114.93,114.93,0,0,1,30.23-38.32,130.86,130.86,0,0,1,38.09-21.59,171.62,171.62,0,0,1,46.9-9.87c5.45-.4,10.94-.56,16.44-.52s11.13.33,16.65.82h0a2.28,2.28,0,0,1,2.07,2.46l0,.16c-.22,2.15-5.19,48.22-27.63,89.85C532.9,236.2,492.38,273.78,421,257.23a2.28,2.28,0,0,1-1.25-.78,2.32,2.32,0,0,1-.51-1.32Zm161.54-149.9a241.46,241.46,0,0,0-29.06,14.21c6,1.07,19.63,3.6,25.75,5.55,2-9.78,3-16.95,3.31-19.76ZM577,127.13h0c-7.07-2.31-25.49-5.52-28.24-6-7.66,4.44-16.29,9.87-25.47,16.38l47.81,12.57c2.55-8.41,4.48-16.23,5.92-23Zm-6.56,25-49.47-13a329.8,329.8,0,0,0-26.53,21.33c9.81,3,56.71,17.37,64.65,21.39a245.54,245.54,0,0,0,11.35-29.71Zm-12.27,31.68c-8-4.1-59.77-19.88-65.62-21.66-7.23,6.56-14.5,13.76-21.65,21.63l73.67,23.52a1,1,0,0,1,.25.12c3.17-4.71,6.08-9.56,8.73-14.48q2.44-4.54,4.62-9.13ZM543.54,209.3l-74.27-23.71c-5.56,6.22-11,12.85-16.34,19.91,12,4.05,73.49,23.18,73.67,23.24a1.2,1.2,0,0,1,.44.26,135.05,135.05,0,0,0,16.5-19.7Zm-18.19,21.33c-6.51-2-64.06-19.95-73.79-23.3q-6.82,9.21-13.21,19.4c14.53,7.17,63.36,19.85,63.51,19.88a1.1,1.1,0,0,1,.66.51,105.83,105.83,0,0,0,22.83-16.49ZM500,248.39c-7.83-2-49.6-13.2-62.84-19.8q-4.06,6.6-7.88,13.62c5.58,2.21,30.56,11.79,46.7,13.44a1.1,1.1,0,0,1,.94.79A98,98,0,0,0,500,248.39Zm-27.85,9c-16.53-2.58-39.15-11.32-43.9-13.21q-2.88,5.4-5.59,11.05c18.56,4.16,35,4.58,49.49,2.16Zm-50.77-4.53q2.52-5.17,5.17-10.14c-2.22-6.18-3.88-16.89-4.69-22.89l-.21,2.21q-.69,7.73-.73,16,0,7.14.46,14.78Zm1.15-38.64a1.09,1.09,0,0,1,.95,1c0,.05,1.74,15.77,4.5,24.91q3.68-6.72,7.6-13.06a212.79,212.79,0,0,1-7.21-38.63,147,147,0,0,0-5.84,25.82Zm7.09-29.44a1.08,1.08,0,0,1,.73.95,209.47,209.47,0,0,0,6.78,38.81q6.18-9.78,12.79-18.66c-1.29-3.79-8.73-26.37-9.76-43.16q-2.79,4.55-5.2,9.46a123.46,123.46,0,0,0-5.34,12.6Zm12.13-24.58a1.13,1.13,0,0,1,.51.88c.58,15.19,7.12,36.21,9.24,42.68,5.24-6.94,10.64-13.46,16.12-19.58-9.79-20.74-11.27-37.64-11.49-41.84a111.65,111.65,0,0,0-14.38,17.86ZM458,140.5a1,1,0,0,1,.31.74c0,.06.21,18,10.93,41.15,7.17-7.9,14.46-15.12,21.72-21.71-4.4-9.88-8.64-34.51-9.21-37.88a121.55,121.55,0,0,0-17.14,11.8q-3.41,2.82-6.61,5.9Zm25.71-18.79a1.11,1.11,0,0,1,.13.36c0,.08,4.33,26.31,8.82,37.07a330.13,330.13,0,0,1,26.87-21.63c-3.18-12.68-3.1-26.42-3.07-28.64-4.9,1.29-9.73,2.79-14.44,4.54a138.61,138.61,0,0,0-18.31,8.3Zm34.91-13.38a1.27,1.27,0,0,1,0,.28,122,122,0,0,0,2.79,27.53c9.33-6.66,18.13-12.2,25.94-16.73a78.18,78.18,0,0,1-.31-15.64,177.75,177.75,0,0,0-28.45,4.56Zm30.63-4.72a.49.49,0,0,1,0,.17,78.51,78.51,0,0,0,.17,14.45,256.3,256.3,0,0,1,29.13-14.46q-7-.54-14-.61C559.46,103.12,554.36,103.26,549.25,103.61Z"/><path class="cls-2" d="M246.8,393s-21.67-11.18-17.7-38.62S216.29,318.24,212,310.08s5.29-21.34,4.21-32.87-14.39-14.61-8.16-30.43S209,225,200.84,208s3.95-42.83,9.73-42.68-1.27,6.19,3.81,17.45,26.5,14.69,33.2,24.11-5.08,21.89,2.57,34.6,30.44,8.77,36.46,21.11-8.34,27.11-4.16,40,19.57,20.26,26,30.65,18.61,30.29-1.25,54.05S246.8,393,246.8,393Z"/><path class="cls-4" d="M208.19,188.83a1.41,1.41,0,0,1,2.63-1l89.66,232.91-3.37-.92Z"/><path class="cls-4" d="M228.83,365.15c-.11-1.08-.18-2.2-.2-3.35l58.88,33.1-5.2-13.54a1.22,1.22,0,0,1-.07-.17l-2.67-6.94-49.87-28c0-1.14,0-2.25-.12-3.31l48.4,27.2-4.72-12.24L227.2,332a38.06,38.06,0,0,0-2-4.36l46.47,26.12-2.34-6.08a1.08,1.08,0,0,1-.08-.19L259,320.9,212.92,295c.27-.92.55-1.84.83-2.77l43.69,24.55-5.11-13.27L216,283.08a26.62,26.62,0,0,0,.3-3.06l34.44,19.35-3.84-10a1.21,1.21,0,0,1-.05-.14l-11.17-29-27-15.15c.34-1,.63-1.86.88-2.74l24.49,13.76-9.75-25.32a.88.88,0,0,1-.05-.15l-16.1-41.81a1.41,1.41,0,0,1,2.63-1l14.63,38,8.35-28.55c.87.43,1.72.87,2.56,1.31l-9.24,31.58,11,28.54s0,.08,0,.12l10.16,26.39,16-34.39c.91.29,1.82.56,2.73.83l-17.36,37.23,3.87,10.06,21.14-45c.91.31,1.8.64,2.66,1l-22.09,47,.34.19a1.41,1.41,0,0,1,.54,1.92,1.43,1.43,0,0,1-.43.48l5.7,14.82a1.12,1.12,0,0,1,.05.13l9.24,24,15.66-33.31c.62.84,1.28,1.66,2,2.46l-16.22,34.5,2.37,6.17,17.37-36.93c.71.69,1.43,1.37,2.16,2.05L275.93,357,282,372.7l.05.12,1.68,4.36L306,329.86c.7.82,1.34,1.67,1.94,2.53l-22.78,48.44,6.41,16.65a.36.36,0,0,1,0,.11l0,.05c-1.11.35-2.23.65-3.36.89Z"/><path class="cls-6" d="M236.72,450.53c-6-4.64-12.09-6.74-15.33-9.74-6.46-6-2.11-20.9-6.8-30.92s-17.64-8.52-17.12-24.75-6.16-19.95-19-32.55-10.23-39.8-5-41.53.86,6,9,14.48,28.57,4.69,37.63,11,2.47,21.33,13.44,30.31,30.21-1.91,39.6,7.25,1.22,27.08,9.14,37.37,24.12,11.93,33.29,19.19c5.16,4.08,12.89,10.3,16.85,19.89Z"/><path class="cls-3" d="M280.18,450.53l-13-15.13-49.82-8.48c-.05-.9-.09-1.83-.14-2.75l47.2,8-8.86-10.3-39.26-6.68a24.25,24.25,0,0,0-.72-2.85l37.22,6.33L246.1,411a.52.52,0,0,1-.1-.11l-19.38-22.5-29.13-5c0-1,0-1.87-.08-2.74l26.46,4.49L207,365.49l-.1-.12-27.93-32.43a1.34,1.34,0,0,1,.14-1.9,1.36,1.36,0,0,1,1.9.14l25.38,29.47-1.67-28.37,2.72.35L209.24,364l19.07,22.15.07.09L246,406.74l3.37-36.11c.9,0,1.81-.08,2.72-.13l-3.64,39.08,6.72,7.8,4.55-47.26c.92,0,1.82,0,2.71,0l-4.76,49.37.37.07a1.33,1.33,0,0,1,1.1,1.55,1.31,1.31,0,0,1-.24.57l9.91,11.5.09.1,14.82,17.21Zm4.91,0,3.24-33.59c.82.56,1.68,1.09,2.55,1.58l-3.08,32Zm7.3,0,2.87-29.78,2.6,1.15-2.76,28.63Zm17.73,0,2.14-22.17q1.33.78,2.55,1.65l-2,20.52Z"/><path class="cls-7" d="M55.52,458.8H50.07a4.14,4.14,0,0,1-4.13-4.13h0a4.15,4.15,0,0,1,4.13-4.14h5.45a4.15,4.15,0,0,1,4.13,4.14h0A4.14,4.14,0,0,1,55.52,458.8Z"/><path class="cls-7" d="M68.79,458.8H668.05a4.15,4.15,0,0,0,4.14-4.13h0a4.15,4.15,0,0,0-4.14-4.14H68.79a4.15,4.15,0,0,0-4.13,4.14h0A4.14,4.14,0,0,0,68.79,458.8Z"/><path class="cls-6" d="M109.33,306.34Zm3.46-13.17a6.65,6.65,0,1,1-2,4.71,6.67,6.67,0,0,1,2-4.71Zm1.44-6.59a11.39,11.39,0,0,0-2.61,1.11,12,12,0,0,0-2.29,1.72.39.39,0,0,1-.48.06l-3.1-1.79h0a.81.81,0,0,0-.57-.06.73.73,0,0,0-.46.35l0,0-2.17,3.76a.77.77,0,0,0-.08.59.79.79,0,0,0,.36.46l0,0,3.07,1.77a.4.4,0,0,1,.19.45h0a12.38,12.38,0,0,0-.26,1.4,12.91,12.91,0,0,0,0,2.87,13,13,0,0,0,.26,1.41.4.4,0,0,1-.21.46L102.8,303h0a.84.84,0,0,0-.36.47.74.74,0,0,0,.08.58l2.19,3.79h0a.75.75,0,0,0,1,.28h0l3.07-1.77a.39.39,0,0,1,.48,0,11.68,11.68,0,0,0,2.29,1.73,11.54,11.54,0,0,0,2.63,1.11.43.43,0,0,1,.3.4v3.57a.77.77,0,0,0,.22.54.8.8,0,0,0,.54.22h4.38a.8.8,0,0,0,.54-.22.77.77,0,0,0,.22-.54v-3.57a.41.41,0,0,1,.32-.4,12.06,12.06,0,0,0,2.61-1.11,11.68,11.68,0,0,0,2.29-1.73.41.41,0,0,1,.5,0l3.07,1.77a.82.82,0,0,0,.59.08.79.79,0,0,0,.46-.36l0,0,2.17-3.77h0a.74.74,0,0,0,.08-.58.84.84,0,0,0-.36-.47l-3.09-1.78a.41.41,0,0,1-.19-.45h0a13,13,0,0,0,.26-1.41,12.91,12.91,0,0,0,0-2.87,12.38,12.38,0,0,0-.26-1.4.42.42,0,0,1,.21-.47l3.07-1.77a.79.79,0,0,0,.36-.46.74.74,0,0,0-.08-.58v0L130.29,288h0a.73.73,0,0,0-.46-.35.79.79,0,0,0-.58.07h0l-3.1,1.79a.41.41,0,0,1-.49-.07,11.88,11.88,0,0,0-4.91-2.83.41.41,0,0,1-.3-.39v-3.57a.76.76,0,0,0-.22-.54.76.76,0,0,0-.54-.23h-4.38a.76.76,0,0,0-.54.23.76.76,0,0,0-.22.54v3.57A.43.43,0,0,1,114.23,286.58Z"/><path class="cls-6" d="M66.13,228.35a15.7,15.7,0,1,1,0,22.17,15.65,15.65,0,0,1,0-22.17Zm5.64-2.06a14,14,0,0,0-4.61,3.09,14.23,14.23,0,0,0,15.5,23.21,14.28,14.28,0,0,0,7.71-7.71,14.24,14.24,0,0,0-7.71-18.59,14.27,14.27,0,0,0-10.89,0ZM70,214.75a26.08,26.08,0,0,0-5.67,2.41,28.18,28.18,0,0,0-2.61,1.74,25.86,25.86,0,0,0-2.39,2,1.63,1.63,0,0,1-.94.45,1.66,1.66,0,0,1-1-.21c-2.3-1.33-4.72-2.64-7-4a1,1,0,0,0-.34-.1.81.81,0,0,0-.38,0,1,1,0,0,0-.36.17,1,1,0,0,0-.25.29c-1.68,2.54-3.36,5.82-4.92,8.51a1.23,1.23,0,0,0-.12.37,1,1,0,0,0,.2.74,1,1,0,0,0,.29.26c2.07,1.37,4.74,2.74,6.94,4a1.65,1.65,0,0,1,.69.77,1.4,1.4,0,0,1,.1.35l.14,0-.16.65c-.12.51-.23,1-.32,1.52s-.17,1-.24,1.55-.11,1-.14,1.56-.05,1-.05,1.58,0,1.07.05,1.57.08,1,.14,1.56.14,1.06.24,1.55.2,1,.32,1.53a1.6,1.6,0,0,1-.1,1.08,1.67,1.67,0,0,1-.74.77L45.28,251h0l-.73.42a.88.88,0,0,0-.29.25,1,1,0,0,0-.17.35.92.92,0,0,0,0,.4,1.18,1.18,0,0,0,.12.36l4.55,7.88h0l.37.64a1,1,0,0,0,.25.28,1.22,1.22,0,0,0,.36.18,1.29,1.29,0,0,0,.39,0,1,1,0,0,0,.36-.13c2.2-1.38,4.68-2.7,6.95-4a1.63,1.63,0,0,1,2,.24h0a25.89,25.89,0,0,0,5,3.77,25.21,25.21,0,0,0,2.8,1.4,25.54,25.54,0,0,0,2.94,1,1.6,1.6,0,0,1,.86.59,1.64,1.64,0,0,1,.33,1v8a.92.92,0,0,0,.08.38,1.07,1.07,0,0,0,.54.54,1,1,0,0,0,.38.08h9.83a.92.92,0,0,0,.38-.08.9.9,0,0,0,.54-.54.92.92,0,0,0,.08-.38v-8a1.66,1.66,0,0,1,.35-1,1.62,1.62,0,0,1,.91-.58,26.83,26.83,0,0,0,2.89-1A25.65,25.65,0,0,0,92.67,260a26,26,0,0,0,2.39-2,1.61,1.61,0,0,1,1-.45,1.64,1.64,0,0,1,1,.26l6.87,4a.92.92,0,0,0,.36.13,1.38,1.38,0,0,0,.4,0,1.29,1.29,0,0,0,.35-.18,1,1,0,0,0,.25-.28c1.63-2.85,3.29-5.68,4.92-8.52a1,1,0,0,0,.12-.36.91.91,0,0,0,0-.4.88.88,0,0,0-.17-.35.84.84,0,0,0-.28-.25l-7-4a1.68,1.68,0,0,1-.69-.78,2,2,0,0,1-.08-.26l-.19,0,.19-.73q.18-.77.33-1.53c.09-.49.16-1,.23-1.55s.11-1,.14-1.56,0-1,0-1.57,0-1.08,0-1.58-.08-1-.14-1.56-.14-1.06-.23-1.55-.21-1-.33-1.52a1.62,1.62,0,0,1,.1-1.09,1.65,1.65,0,0,1,.74-.76l6.87-4a.91.91,0,0,0,.29-.26.88.88,0,0,0,.17-.35.86.86,0,0,0,0-.39,1,1,0,0,0-.12-.37c-1.68-2.49-3.36-5.83-4.92-8.51a1,1,0,0,0-.25-.29,1,1,0,0,0-.35-.17.92.92,0,0,0-.4,0,.81.81,0,0,0-.36.12l-7,4a1.61,1.61,0,0,1-1,.21,1.66,1.66,0,0,1-.94-.47,25.4,25.4,0,0,0-2.38-2,26.07,26.07,0,0,0-2.6-1.73,27,27,0,0,0-2.8-1.39,25.54,25.54,0,0,0-2.94-1,1.69,1.69,0,0,1-.86-.59,1.66,1.66,0,0,1-.33-1v-8a1,1,0,0,0-.08-.38,1.08,1.08,0,0,0-.22-.32,1,1,0,0,0-.32-.22.92.92,0,0,0-.38-.07H72.3a1,1,0,0,0-.38.07,1,1,0,0,0-.32.22,1,1,0,0,0-.3.7v8a1.63,1.63,0,0,1-.35,1,1.69,1.69,0,0,1-.91.59Zm-3.46-.31a27.4,27.4,0,0,0-8.21,5.45.16.16,0,0,1-.11.05.16.16,0,0,1-.12,0c-2.34-1.35-4.68-2.69-7-4a2.31,2.31,0,0,0-.88-.27,2.59,2.59,0,0,0-.92.06,2.53,2.53,0,0,0-.85.43,2.39,2.39,0,0,0-.63.71c-1.7,2.74-3.3,5.71-4.92,8.52a2.3,2.3,0,0,0-.31.9,2.38,2.38,0,0,0,.07,1,2.33,2.33,0,0,0,.42.85,2.39,2.39,0,0,0,.71.63c2.24,1.38,4.66,2.69,7,4a.16.16,0,0,1,.07.09.17.17,0,0,1,0,.12l-.16.65h0c-.07.32-.14.64-.2,1-.1.56-.18,1.1-.25,1.64s-.11,1.08-.15,1.65,0,1.12,0,1.66,0,1.09,0,1.66.09,1.11.15,1.64.15,1.09.25,1.64.22,1.09.35,1.61a.2.2,0,0,1,0,.13.18.18,0,0,1-.08.09c-2.55,1.36-5.14,3-7.66,4.42l.09.12-.08.09a2.38,2.38,0,0,0-.42.86,2.33,2.33,0,0,0-.07,1,2.4,2.4,0,0,0,.31.91l5.28,9.15.1-.06.17.14a2.5,2.5,0,0,0,.85.42,2.53,2.53,0,0,0,1,.06,2.29,2.29,0,0,0,.88-.29c2.32-1.23,4.7-2.71,7-4a.2.2,0,0,1,.11,0,.23.23,0,0,1,.12.06,30.4,30.4,0,0,0,2.52,2.15A25.8,25.8,0,0,0,63.65,263a26.41,26.41,0,0,0,6.06,2.58.18.18,0,0,1,.1.07.19.19,0,0,1,0,.12v8a2.47,2.47,0,0,0,.19.94,2.39,2.39,0,0,0,.53.79,2.46,2.46,0,0,0,1.73.72h9.83a2.46,2.46,0,0,0,1.73-.72,2.39,2.39,0,0,0,.53-.79,2.47,2.47,0,0,0,.19-.94v-8a.16.16,0,0,1,0-.12.14.14,0,0,1,.11-.07h0a27.51,27.51,0,0,0,3.09-1.1A25.86,25.86,0,0,0,90.78,263a24.83,24.83,0,0,0,2.76-1.82A27.45,27.45,0,0,0,96.07,259a.16.16,0,0,1,.11-.05.24.24,0,0,1,.12,0l7,4a2.46,2.46,0,0,0,.9.3,2.46,2.46,0,0,0,1.81-.48,2.43,2.43,0,0,0,.61-.7c1.83-2.93,3.55-6.14,5.29-9.15l-.09-.06c0-.08,0-.15,0-.23a2.33,2.33,0,0,0-.07-1,2.38,2.38,0,0,0-.42-.86,2.53,2.53,0,0,0-.71-.63l-7-4a.16.16,0,0,1-.07-.09.13.13,0,0,1,0-.12l.18-.74h0c.06-.28.12-.57.17-.87.1-.55.19-1.1.25-1.64s.12-1.08.15-1.64.05-1.12.05-1.66,0-1.1-.05-1.66-.08-1.12-.15-1.65-.15-1.08-.25-1.64-.22-1.09-.35-1.61a.21.21,0,0,1,0-.13.26.26,0,0,1,.09-.09l6.93-4a2.17,2.17,0,0,0,.71-.63,2.41,2.41,0,0,0,.42-.85,2.34,2.34,0,0,0,.07-1,2.41,2.41,0,0,0-.3-.89c-1.65-3.06-3.54-6.15-5.29-9.18l-.1.06-.16-.13a2.57,2.57,0,0,0-.86-.43,2.53,2.53,0,0,0-.95-.06,2.4,2.4,0,0,0-.9.3l-.52.3h0l-6.44,3.72a.16.16,0,0,1-.12,0,.16.16,0,0,1-.11-.05l0,0a26,26,0,0,0-2.51-2.14,27.83,27.83,0,0,0-2.75-1.82,26.15,26.15,0,0,0-3-1.47,28,28,0,0,0-3.11-1.11.14.14,0,0,1-.1-.07.15.15,0,0,1,0-.11v-8a2.41,2.41,0,0,0-.19-.93,2.54,2.54,0,0,0-.53-.8,2.81,2.81,0,0,0-.79-.53,2.46,2.46,0,0,0-.94-.18H72.3a2.46,2.46,0,0,0-.94.18,2.81,2.81,0,0,0-.79.53,2.48,2.48,0,0,0-.72,1.73v8a.17.17,0,0,1,0,.12.23.23,0,0,1-.11.07h0A25.63,25.63,0,0,0,66.58,214.44Z"/><path class="cls-6" d="M342.38,117.71Zm3.46-13.17a6.65,6.65,0,1,1-1.95,4.71,6.65,6.65,0,0,1,1.95-4.71Zm1.43-6.6a11.73,11.73,0,0,0-4.89,2.84.41.41,0,0,1-.49.06l-3.09-1.79h0a.79.79,0,0,0-.56-.06.76.76,0,0,0-.47.36v0l-2.18,3.76a.82.82,0,0,0-.07.59.73.73,0,0,0,.35.46l0,0,3.06,1.77a.41.41,0,0,1,.2.45h0a10.49,10.49,0,0,0-.26,1.4,11.49,11.49,0,0,0,0,2.87,11,11,0,0,0,.26,1.41.41.41,0,0,1-.22.46l-3.07,1.77h0a.79.79,0,0,0-.28,1.05l2.19,3.79h0a.84.84,0,0,0,.47.36.79.79,0,0,0,.58-.08h0l3.07-1.78a.42.42,0,0,1,.49.06,11.63,11.63,0,0,0,4.91,2.84.43.43,0,0,1,.3.4v3.56a.77.77,0,0,0,.76.77h4.38a.76.76,0,0,0,.54-.23.75.75,0,0,0,.23-.54V121a.4.4,0,0,1,.31-.4,11.85,11.85,0,0,0,2.61-1.11,11.68,11.68,0,0,0,2.29-1.73.41.41,0,0,1,.51,0l3.07,1.77a.79.79,0,0,0,.58.08.84.84,0,0,0,.47-.36v0l2.18-3.77h0a.74.74,0,0,0,.08-.58.76.76,0,0,0-.36-.47l-3.09-1.78a.41.41,0,0,1-.19-.45h0a13,13,0,0,0,.26-1.41,11.49,11.49,0,0,0,0-2.87,12.38,12.38,0,0,0-.26-1.4.42.42,0,0,1,.22-.47l3.06-1.77a.72.72,0,0,0,.36-.46.74.74,0,0,0-.08-.58v0l-2.17-3.77h0a.76.76,0,0,0-.47-.36.79.79,0,0,0-.58.07h0l-3.09,1.79a.42.42,0,0,1-.5-.07,11.66,11.66,0,0,0-2.28-1.72,12,12,0,0,0-2.63-1.11.42.42,0,0,1-.29-.39V94a.79.79,0,0,0-.77-.77h-4.38a.78.78,0,0,0-.54.23.8.8,0,0,0-.22.54v3.57A.4.4,0,0,1,347.27,97.94Z"/><path class="cls-6" d="M666.79,244.38Zm3.46-13.18a6.66,6.66,0,1,1-2,4.71,6.67,6.67,0,0,1,2-4.71Zm1.44-6.59a11.39,11.39,0,0,0-2.61,1.11,12,12,0,0,0-2.29,1.72.41.41,0,0,1-.49.06l-3.09-1.78h0a.76.76,0,0,0-.57-.07.8.8,0,0,0-.47.36v0L660,229.79a.74.74,0,0,0-.08.58.8.8,0,0,0,.36.47h0l3.07,1.77a.41.41,0,0,1,.19.45h0a13,13,0,0,0-.26,1.41,12.82,12.82,0,0,0,0,2.86,13,13,0,0,0,.26,1.41.41.41,0,0,1-.22.46L660.26,241h0a.8.8,0,0,0-.36.47.74.74,0,0,0,.08.58l2.18,3.79h0a.8.8,0,0,0,.47.36.74.74,0,0,0,.58-.08h0l3.07-1.77a.41.41,0,0,1,.49.06,11.87,11.87,0,0,0,4.92,2.84.41.41,0,0,1,.29.39v3.57a.76.76,0,0,0,.23.54.76.76,0,0,0,.54.22h4.38a.77.77,0,0,0,.54-.22.8.8,0,0,0,.22-.54v-3.57a.41.41,0,0,1,.31-.4,11.21,11.21,0,0,0,2.61-1.11,11.73,11.73,0,0,0,2.29-1.72.41.41,0,0,1,.51,0l3.07,1.77a.74.74,0,0,0,.58.08.8.8,0,0,0,.47-.36v0l2.18-3.77h0a.79.79,0,0,0-.28-1.05l-3.09-1.78a.4.4,0,0,1-.19-.45h0a13,13,0,0,0,.25-1.41,11.41,11.41,0,0,0,0-2.86,13,13,0,0,0-.25-1.41.39.39,0,0,1,.21-.46l3.07-1.77a.79.79,0,0,0,.28-1.05l0,0L687.75,226h0a.8.8,0,0,0-.47-.36.74.74,0,0,0-.58.08h0l-3.09,1.78a.41.41,0,0,1-.5-.07,11.61,11.61,0,0,0-2.28-1.71,11.75,11.75,0,0,0-2.62-1.12.41.41,0,0,1-.3-.39v-3.57a.8.8,0,0,0-.22-.54.77.77,0,0,0-.54-.22h-4.38a.76.76,0,0,0-.54.22.76.76,0,0,0-.23.54v3.57A.42.42,0,0,1,671.69,224.61Z"/><path class="cls-2" d="M695.32,270.45a1.14,1.14,0,1,0-2.28,0v2.69h-2.68a1.14,1.14,0,1,0,0,2.28H693v2.68a1.14,1.14,0,1,0,2.28,0v-2.68H698a1.14,1.14,0,1,0,0-2.28h-2.69Z"/><path class="cls-7" d="M448.86,256.47h-68a4.5,4.5,0,0,0-4.48,4.49h0a4.5,4.5,0,0,0,4.48,4.49h68a4.5,4.5,0,0,0,4.49-4.49h0A4.5,4.5,0,0,0,448.86,256.47Z"/><path class="cls-8" d="M446.58,224.48H415.11a.57.57,0,0,0-.54.47l-5.64,40a.39.39,0,0,0,.4.47h43a.39.39,0,0,0,.4-.47l-5.64-40A.57.57,0,0,0,446.58,224.48Z"/><path class="cls-8" d="M465.46,256.47h-68A4.5,4.5,0,0,0,393,261h0a4.5,4.5,0,0,0,4.49,4.49h68A4.5,4.5,0,0,0,470,261h0A4.5,4.5,0,0,0,465.46,256.47Z"/><path class="cls-9" d="M348.91,136.27H499.7A2.33,2.33,0,0,1,502,138.6V239.44a2.33,2.33,0,0,1-2.33,2.33H348.91a2.33,2.33,0,0,1-2.33-2.33V138.6A2.32,2.32,0,0,1,348.91,136.27Z"/><path class="cls-10" d="M356.28,136.27H507.07a2.32,2.32,0,0,1,2.32,2.32V239.44a2.33,2.33,0,0,1-2.33,2.33H356.28a2.33,2.33,0,0,1-2.33-2.33V138.6A2.33,2.33,0,0,1,356.28,136.27Z"/><path class="cls-11" d="M505.81,137.79H357.54a1.54,1.54,0,0,0-1.54,1.54v90.92a1,1,0,0,0,1,1H506.39a1,1,0,0,0,1-1V139.33A1.54,1.54,0,0,0,505.81,137.79Z"/><rect class="cls-12" x="360.35" y="142.14" width="142.64" height="84.71"/><path class="cls-11" d="M418.46,245.91,417,256.47h-6.84l2.07-14.71h37.29l.52,3.68H419A.55.55,0,0,0,418.46,245.91Z"/><rect class="cls-1" x="360.35" y="142.14" width="143.13" height="4.87"/><rect class="cls-1" x="360.35" y="221.98" width="143.13" height="4.87"/><rect class="cls-13" x="361.25" y="143.18" width="35.95" height="2.8"/><path class="cls-14" d="M395.47,145.19a.61.61,0,0,0,.62-.61.62.62,0,0,0-.62-.62.61.61,0,0,0-.61.62A.61.61,0,0,0,395.47,145.19Z"/><path class="cls-14" d="M393.6,145.19a.61.61,0,0,0,.62-.61.62.62,0,1,0-1.23,0A.61.61,0,0,0,393.6,145.19Z"/><path class="cls-14" d="M391.73,145.19a.61.61,0,0,0,.62-.61.62.62,0,1,0-1.23,0A.61.61,0,0,0,391.73,145.19Z"/><rect class="cls-13" x="398.89" y="143.18" width="35.95" height="2.8"/><path class="cls-14" d="M433.12,145.19a.61.61,0,0,0,.61-.61.61.61,0,0,0-.61-.62.62.62,0,0,0-.62.62A.61.61,0,0,0,433.12,145.19Z"/><path class="cls-14" d="M431.25,145.19a.61.61,0,0,0,.61-.61.61.61,0,0,0-.61-.62.62.62,0,0,0-.62.62A.61.61,0,0,0,431.25,145.19Z"/><path class="cls-14" d="M429.38,145.19a.61.61,0,0,0,.61-.61.61.61,0,1,0-1.22,0A.61.61,0,0,0,429.38,145.19Z"/><text class="cls-15" transform="translate(373.18 198.98)">ERROR </text><text class="cls-16" transform="translate(388.74 198.91)">404</text><rect class="cls-1" x="412.35" y="212.53" width="17.03" height="5.67"/><rect class="cls-1" x="433.97" y="212.53" width="17.03" height="5.67"/><text class="cls-17" transform="translate(415.83 216.51)">RELOAD</text><text class="cls-17" transform="translate(438.6 216.51)">HOME</text><path class="cls-5" d="M371.35,203.4H492a.76.76,0,0,1,.77.76h0a.76.76,0,0,1-.77.77H371.35a.76.76,0,0,1-.76-.77h0A.76.76,0,0,1,371.35,203.4Z"/><path class="cls-5" d="M380.8,207H482.54a.78.78,0,0,1,.77.77h0a.78.78,0,0,1-.77.77H380.8a.77.77,0,0,1-.76-.77h0A.77.77,0,0,1,380.8,207Z"/><path class="cls-11" d="M430.62,252H519a9,9,0,0,1,9,9h0a9,9,0,0,1-9,9H430.62a9,9,0,0,1-9-9h0A9,9,0,0,1,430.62,252Z"/><path class="cls-18" d="M413.74,252h40.95a9,9,0,0,1,9,9h0a9,9,0,0,1-9,9H413.74a9,9,0,0,1-9-9h0A9,9,0,0,1,413.74,252Z"/><rect class="cls-19" x="363.05" y="266.67" width="284.25" height="33.52" rx="5.03"/><path class="cls-7" d="M367.93,266.67H642.4a5,5,0,0,1,4.89,5v9.23a5,5,0,0,1-4.89,5H367.93a5,5,0,0,1-4.88-5V271.7A5,5,0,0,1,367.93,266.67Z"/><rect class="cls-9" x="287.52" y="267.09" width="86.29" height="183.21" rx="5.21"/><path class="cls-19" d="M367.65,267.09h67.91a4.66,4.66,0,0,1,4.66,4.66V445.63a4.67,4.67,0,0,1-4.67,4.67H367.65a4.67,4.67,0,0,1-4.67-4.67V271.76A4.67,4.67,0,0,1,367.65,267.09Z"/><rect class="cls-20" x="363.05" y="260.96" width="297.69" height="11.42" rx="1.71"/><rect class="cls-21" x="278.64" y="260.96" width="87.44" height="11.42" rx="1.71"/><rect class="cls-1" x="368.77" y="278.17" width="65.68" height="52.66" rx="3.89"/><path class="cls-22" d="M434.4,327.52H377.29a3.92,3.92,0,0,1-3.49-2.17,4,4,0,0,1-.4-1.72V278.75a5.28,5.28,0,0,1,0-.58h-.78a3.9,3.9,0,0,0-3.89,3.88v44.89a3.9,3.9,0,0,0,3.89,3.89h57.9A3.9,3.9,0,0,0,434.4,327.52Z"/><rect class="cls-23" x="386.13" y="281.27" width="30.95" height="3.48" rx="1.5"/><rect class="cls-1" x="368.77" y="333.62" width="65.68" height="52.66" rx="3.89"/><path class="cls-22" d="M434.4,383H377.29a3.89,3.89,0,0,1-3.89-3.89V334.2a5.46,5.46,0,0,1,0-.58h-.78a3.9,3.9,0,0,0-3.89,3.89v44.88a3.9,3.9,0,0,0,3.89,3.89h57.9A3.9,3.9,0,0,0,434.4,383Z"/><rect class="cls-23" x="386.13" y="336.72" width="30.95" height="3.48" rx="1.5"/><rect class="cls-1" x="368.77" y="389.07" width="65.68" height="52.66" rx="3.89"/><path class="cls-22" d="M434.4,438.42H377.29a3.89,3.89,0,0,1-3.89-3.89V389.65a5.46,5.46,0,0,1,0-.58h-.78a3.9,3.9,0,0,0-3.89,3.89v44.88a3.9,3.9,0,0,0,3.89,3.89h57.9A3.9,3.9,0,0,0,434.4,438.42Z"/><rect class="cls-23" x="386.13" y="392.17" width="30.95" height="3.48" rx="1.5"/><rect class="cls-24" x="590.3" y="267.09" width="11.4" height="185.43" rx="0.46"/><rect class="cls-1" x="595.53" y="267.09" width="7.94" height="185.43" rx="2.34"/><rect class="cls-24" x="639.35" y="267.09" width="11.4" height="185.43" rx="0.46"/><rect class="cls-1" x="644.57" y="267.09" width="7.94" height="185.43" rx="2.34"/><path class="cls-25" d="M488.17,261H659a1.72,1.72,0,0,1,1.71,1.72v8a1.72,1.72,0,0,1-1.71,1.71H499.29A64.17,64.17,0,0,0,488.17,261Z"/><path class="cls-26" d="M550.21,211.39l2.15,3.58s.83,4.36-.41,7.34,14.23,6.21,14.23,6.21l12-9.69,2.65-3.31s-5.63-6.12-6-8.77S550.21,211.39,550.21,211.39Z"/><path class="cls-27" d="M523.48,245.69s-8.11,6.54-10.93,7-15.14-5.22-17.62-5.88-8-.66-11.92-.66-8,1.49-10.09,5.79h8.27c2.24,0,9.77,6.12,17.05,11.09s13.07,9.1,17.88,8.61,21.34-12.91,21.34-12.91Z"/><path class="cls-26" d="M498.24,263.07c7.28,5,13.07,9.1,17.88,8.61s21.34-12.91,21.34-12.91l-14-13.08s-1.88,1.51-4.14,3.14c5.9,9.36,3.24,13.4-3.67,16.17-5.55,2.22-19.65-5.49-28.51-9.79C490.35,257.41,494.33,260.4,498.24,263.07Z"/><path class="cls-18" d="M589.64,322.08s-41.86-.38-47,.07-10.17,5.89-9.31,14.31,12.58,74,12.58,74a4.82,4.82,0,0,0,1.7.77c.91.19,8.4,1.42,8.4,1.42l.51-6.08-4.38-63.79,38.61-7Z"/><path class="cls-14" d="M556.48,406.56a2.05,2.05,0,0,1,1.26,1.36,67,67,0,0,1,1.12,9.4c-.08,1-2.66,3-7.08,4.92S530.54,429,530.54,429l-.19-.61a2.23,2.23,0,0,1-1.11-1.38,6.37,6.37,0,0,1,.71-4.63c.92-1.31,6.35-5,7.34-5.83s5.91-7.65,6.31-8.11a5.29,5.29,0,0,1,6.07-.39C552.74,409.79,556.22,409.18,556.48,406.56Z"/><path class="cls-5" d="M530.35,428.41s16.78-6.16,20.46-7.45,8-4.79,8-4.79a1.41,1.41,0,0,1,.73.76c.12.49.22,2.21.26,2.57a2.9,2.9,0,0,1-1.92,2.77c-1.84.79-25.28,9.05-26.35,9.4s-1.5-2.48-1.5-2.48S530,428.58,530.35,428.41Z"/><path class="cls-28" d="M615.57,296.09s-111.91,12.92-118,14.25-11.26,8.6-8.94,18.54S516,418.55,516,418.55a5.86,5.86,0,0,0,2.15.66c1.12.09,10.26.42,10.26.42L532,416l-20-71.19,81.76-4.14C616.68,336.93,619.79,309,615.57,296.09Z"/><path class="cls-14" d="M536.84,304.62s8.93,6.62,14.31,4.47,31.2-46.76,31.2-46.76l-12.41-44.69a116.11,116.11,0,0,0-18.13,2.49L550,221.82s-7.28,1.24-11.42,5.88-17.71,16.71-18.2,17.71,11.83,14.56,15,16.71a2.55,2.55,0,0,0,2.4-.41l1.49-1.2s3.31,17.23,3.31,22.34V288s-1.74,13.18-3.06,14.42S536.84,304.62,536.84,304.62Z"/><path class="cls-5" d="M576.79,313.11a3.75,3.75,0,1,0,0-7.5h-33.1a16.54,16.54,0,0,1-16.05-12.89,59.73,59.73,0,0,0-6.88,3.33,24.05,24.05,0,0,0,22.93,17.06Z"/><rect class="cls-23" x="577" y="342.85" width="9.51" height="78.25"/><rect class="cls-9" x="564.38" y="316.57" width="9.27" height="21.18"/><rect class="cls-9" x="628.43" y="316.57" width="9.27" height="21.18"/><path class="cls-10" d="M577,341h9.51A5.51,5.51,0,0,1,592,346.5v10.17a5.5,5.5,0,0,1-5.5,5.5H577a5.51,5.51,0,0,1-5.51-5.51V346.5A5.51,5.51,0,0,1,577,341Z"/><rect class="cls-23" x="567.85" y="339.35" width="27.8" height="15.95" rx="1.58"/><path class="cls-29" d="M508.76,333.29h77.13a5.29,5.29,0,0,1,5.29,5.29v6a5.3,5.3,0,0,1-5.3,5.3H508.77a5.3,5.3,0,0,1-5.3-5.3v-6A5.3,5.3,0,0,1,508.76,333.29Z"/><rect class="cls-30" x="559.57" y="333.29" width="87.72" height="16.55" rx="5.3"/><path class="cls-10" d="M577,416h9.51A5.51,5.51,0,0,1,592,421.5v10.17a5.5,5.5,0,0,1-5.5,5.5H577a5.5,5.5,0,0,1-5.5-5.5V421.5A5.51,5.51,0,0,1,577,416Z"/><rect class="cls-23" x="567.85" y="426.09" width="27.8" height="23.03" rx="2.28"/><path class="cls-31" d="M607,443.47h0a6.84,6.84,0,0,1-6.82,6.83H563.34a6.85,6.85,0,0,1-6.83-6.83h0a6.84,6.84,0,0,1,6.83-6.82h36.83A6.84,6.84,0,0,1,607,443.47Z"/><path class="cls-11" d="M642.82,450.3h0a6.85,6.85,0,0,1-6.82,6.83H542.4a6.85,6.85,0,0,1-6.82-6.83h0a6.84,6.84,0,0,1,6.82-6.83H636A6.84,6.84,0,0,1,642.82,450.3Z"/><path class="cls-7" d="M584.24,450.3h0a6.86,6.86,0,0,1-6.83,6.83h-49.9a6.85,6.85,0,0,1-6.83-6.83h0a6.85,6.85,0,0,1,6.83-6.83h49.9A6.85,6.85,0,0,1,584.24,450.3Z"/><path class="cls-5" d="M562.89,288a3.75,3.75,0,0,1,0,7.5h-33.1a16.51,16.51,0,0,0-16.44,16.44v29.83a3.76,3.76,0,1,1-7.51,0V311.9A24,24,0,0,1,529.79,288Z"/><path class="cls-32" d="M636.37,248a41.25,41.25,0,0,0-41.13-41.13h-5.46A41.25,41.25,0,0,0,548.65,248v61.17a10.6,10.6,0,0,0,10.57,10.57h66.57a10.6,10.6,0,0,0,10.58-10.57Z"/><path class="cls-33" d="M647.29,248a41.25,41.25,0,0,0-41.13-41.13H600.7A41.25,41.25,0,0,0,559.57,248v61.17a10.6,10.6,0,0,0,10.57,10.57h66.58a10.6,10.6,0,0,0,10.57-10.57Z"/><path class="cls-14" d="M531.13,413.09a3.26,3.26,0,0,1,2.35,1.21c.91,1.21,4.14,9.48,4.3,10.72s-3.31,4.39-9.68,7.94-31.24,14.49-31.24,14.49l-.46-.67a3.3,3.3,0,0,1-2.11-1.28,6,6,0,0,1-.16-5.67c1.07-1.82,8.52-7.86,9.84-9.1s7.12-10.8,7.62-11.46a10.44,10.44,0,0,1,9.35-2.32C526.2,418,531.45,416.25,531.13,413.09Z"/><path class="cls-5" d="M496.4,446.78s24.46-12.37,29.84-15,11.16-8.08,11.16-8.08,1,.14,1.33.68a28.26,28.26,0,0,1,1.12,2.93c.17.42.42,2.36-2.23,3.85s-36.91,18.37-38.48,19.12-3-2.47-3-2.47S495.85,447.1,496.4,446.78Z"/><path class="cls-27" d="M543.09,161l4-.93a17.77,17.77,0,0,1,21.29,13.22l4.44,19a17.77,17.77,0,0,1-13.22,21.29l-4,.93a17.77,17.77,0,0,1-21.29-13.22l-4.44-19A17.77,17.77,0,0,1,543.09,161Z"/><path class="cls-26" d="M568.86,175.49l3.93,16.82a17.77,17.77,0,0,1-13.22,21.29l-4,.93a17.57,17.57,0,0,1-11.31-1.13c.46.2,3.83,1.51,4.58-1,.81-2.66-3.79-11.22-3.79-11.22a1.06,1.06,0,0,1,.08-1.09A16,16,0,0,0,547,189.18c-1.15-5.71,6.23-9.68,6.23-9.68l-17.07,4.62v3.47a8.18,8.18,0,0,0-6.09-4.31l-.23-1a17.6,17.6,0,0,1,1.82-12.69C537.35,170.32,555.89,172.68,568.86,175.49Z"/><path class="cls-11" d="M537.33,192.92s-1.55-.16-2.06-2.34-.67-2.9-.67-2.9a18.16,18.16,0,0,1-2.63-6.37s-10.09-1.41-12.05-10.76,6.74-19.22,8-20.2,6.65-2.84,13.39.18c0,0,1.15.72,3.36-.18s14.58-4.39,20.57-4.59,9.85,6,12.66,13.49a4.38,4.38,0,0,1,3.37-3.66c3-.63,1.4,5-.78,7,0,0,5.14,2.65,6.13,8.15s-.88,29.78-5.48,34.63-16.2,6.91-19.9,7.77-11-3-14-13.12c0,0,1.46-5.05.25-9.22s-2.29-7.24-3.85-7.78-5.41,3.49-5.74,5.31a11.32,11.32,0,0,0,.4,4.28A1.45,1.45,0,0,1,537.33,192.92Z"/><path class="cls-18" d="M537.33,192.92s-1.55-.16-2.06-2.34-.67-2.9-.67-2.9a18.39,18.39,0,0,1-2.63-6.37s-10.09-1.41-12.05-10.76,6.74-19.22,8-20.2c0,0-9.52,10.38,1,15.72s26,8.72,36.19,8.07,17.41-18.3,17.41-18.31c1.17,1.11-.23,5.15-2,6.73,0,0,5.14,2.65,6.13,8.15s-.88,29.78-5.48,34.63-16.2,6.91-19.9,7.77-11-3-14-13.12c0,0,1.45-5.05.25-9.22s-2.29-7.24-3.85-7.78-5.41,3.49-5.74,5.31a11.32,11.32,0,0,0,.4,4.28A1.45,1.45,0,0,1,537.33,192.92Z"/><path class="cls-2" d="M677.23,348a1.14,1.14,0,0,0-2.28,0v2.69h-2.69a1.14,1.14,0,1,0,0,2.28H675v2.68a1.14,1.14,0,1,0,2.28,0V353h2.68a1.14,1.14,0,1,0,0-2.28h-2.68Z"/><path class="cls-2" d="M608.73,111.48a1.15,1.15,0,0,0-2.29,0v2.68h-2.68a1.14,1.14,0,1,0,0,2.28h2.68v2.69a1.15,1.15,0,0,0,2.29,0v-2.69h2.68a1.14,1.14,0,0,0,0-2.28h-2.68Z"/><path class="cls-2" d="M479.48,68.83a1.14,1.14,0,1,0-2.28,0v2.68h-2.69a1.14,1.14,0,1,0,0,2.28h2.69v2.69a1.14,1.14,0,1,0,2.28,0V73.79h2.68a1.14,1.14,0,0,0,0-2.28h-2.68Z"/><path class="cls-2" d="M160.24,296.3a1.15,1.15,0,0,0-2.29,0V299h-2.68a1.14,1.14,0,0,0,0,2.28H158V304a1.15,1.15,0,0,0,2.29,0v-2.69h2.68a1.14,1.14,0,1,0,0-2.28h-2.68Z"/><path class="cls-2" d="M271.39,149a1.15,1.15,0,0,0-2.29,0v2.68h-2.68a1.15,1.15,0,0,0,0,2.29h2.68v2.68a1.15,1.15,0,0,0,2.29,0v-2.68h2.68a1.15,1.15,0,0,0,0-2.29h-2.68Z"/><path class="cls-2" d="M140.85,404.87a1.14,1.14,0,1,0-2.28,0v2.68h-2.69a1.15,1.15,0,0,0,0,2.29h2.69v2.68a1.14,1.14,0,0,0,2.28,0v-2.68h2.68a1.15,1.15,0,0,0,0-2.29h-2.68Z"/><path class="cls-2" d="M38.74,322.15a1.14,1.14,0,0,0-2.28,0v2.69H33.77a1.14,1.14,0,0,0,0,2.28h2.69v2.68a1.14,1.14,0,1,0,2.28,0v-2.68h2.69a1.14,1.14,0,1,0,0-2.28H38.74Z"/><path class="cls-34" d="M315.47,317.81c16.17-8.6,20.28,10.11,14,25.6S290.9,411,289.21,431.67c-.65,8-2.15,7.14-3.42,1.52C279.41,405.18,293.2,329.64,315.47,317.81Z"/><path class="cls-35" d="M281.21,246.83c-18.55-16.71-30.15,6.67-26.94,29.22S283,378.13,278.37,406c-1.78,10.81.48,10.15,4,3.14C300.06,374.21,306.75,269.82,281.21,246.83Z"/><path class="cls-36" d="M278,413.75c.4,1,1.28.52,2.46-1.2,19.33-64.4-10.79-160.63-10.88-160.93a1,1,0,1,0-1.92.59C267.73,252.52,298.26,350.05,278,413.75Z"/><path class="cls-37" d="M240.69,300.33c-18-7.82-20.79,12.48-12.79,28.48s46.77,68.9,50.29,90.8c1.37,8.49,2.89,7.44,3.78,1.34C286.44,390.53,265.44,311.1,240.69,300.33Z"/><path class="cls-38" d="M279.83,425.48c.56.67,1.08.07,1.54-1.51-1.63-52.78-48-117-48.16-117.17a.79.79,0,0,0-1.29.92C232.07,307.93,279.09,373,279.83,425.48Z"/><polygon class="cls-8" points="266 413.79 300.54 413.79 309.55 421.93 302.19 450.3 283.27 450.3 264.35 450.3 256.99 421.93 266 413.79"/><rect class="cls-10" x="254.13" y="403.23" width="58.28" height="18.69" rx="2.86"/><polygon class="cls-11" points="309.55 421.93 308.04 427.76 258.5 427.76 256.99 421.93 309.55 421.93"/></g></svg>